<?xml version="1.0" encoding="UTF-8"?>
<svg version="1.1" xmlns="http://www.w3.org/2000/svg" width="2000" height="2000">
<path d="M0 0 C660 0 1320 0 2000 0 C2000 660 2000 1320 2000 2000 C1340 2000 680 2000 0 2000 C0 1340 0 680 0 0 Z " fill="#02071A" transform="translate(0,0)"/>
<path d="M0 0 C9.57 0 19.14 0 29 0 C36.00763707 15.01636515 42.95540016 30.04592401 49.7109375 45.17724609 C54.89844691 56.79428756 60.14281674 68.38528942 65.39334106 79.97396851 C69.99616999 90.13357513 74.58749179 100.29807401 79.1484375 110.4765625 C79.98152042 112.33423133 80.81460951 114.19189739 81.64770508 116.04956055 C83.23122155 119.58096453 84.81121156 123.11391929 86.3894043 126.64770508 C87.10452606 128.24305908 87.81976988 129.83835838 88.53515625 131.43359375 C88.85821747 132.15966827 89.18127869 132.8857428 89.51412964 133.63381958 C90.84755897 136.60063599 92.19071904 139.28607856 94 142 C95.29231226 139.58367661 96.58387191 137.16695604 97.875 134.75 C98.23980469 134.06808594 98.60460937 133.38617187 98.98046875 132.68359375 C100.69393573 129.4747374 102.39993987 126.26749122 104 123 C104.78761719 123.38671875 105.57523438 123.7734375 106.38671875 124.171875 C116.76681932 129.13466864 127.35964631 133.56416772 139 134 C140.16660156 134.0515625 141.33320312 134.103125 142.53515625 134.15625 C151.65189483 134.37527075 159.43637653 134.10326396 167.125 128.875 C169.38979123 125.40232012 169.5594741 123.14817737 169.56640625 119.0859375 C168.78760585 116.21780362 167.45900426 115.60603298 165 114 C158.09152032 111.18716189 150.70708036 110.20127954 143.375 109.125 C128.49262875 106.76918737 114.3245652 104.13957486 103.1875 93.25 C97.176078 84.31874446 95.69757115 75.94249021 97.4375 65.33203125 C99.82748869 55.69738934 105.95026228 48.94565424 114.11328125 43.5703125 C133.72437506 32.90230207 157.30319924 33.82966348 178.30859375 39.515625 C183.29726105 41.01677091 188.33351785 42.66880486 193 45 C193.33 45.66 193.66 46.32 194 47 C193.19555664 49.06298828 193.19555664 49.06298828 191.91015625 51.5703125 C191.45576172 52.46621094 191.00136719 53.36210938 190.53320312 54.28515625 C190.04787109 55.22230469 189.56253906 56.15945313 189.0625 57.125 C188.58103516 58.06988281 188.09957031 59.01476562 187.60351562 59.98828125 C186.40938905 62.32924226 185.20797401 64.66616264 184 67 C179.66340239 66.18303806 176.01486157 64.81497242 171.98828125 63.03515625 C164.07376816 60.29352753 156.20301922 59.63655065 147.875 59.625 C146.93785156 59.60050781 146.00070312 59.57601562 145.03515625 59.55078125 C137.44220255 59.5189227 132.1648832 61.22107816 126.4375 66.25 C124.75196044 69.47451045 124.41569346 71.42406722 125.16748047 74.96801758 C126.74869658 78.82739051 130.35592585 80.31280748 134 82 C137.76607213 83.14680356 141.56542409 83.86850106 145.4375 84.5625 C147.5770673 84.98052196 149.71638955 85.39980004 151.85546875 85.8203125 C152.90009277 86.02043945 153.9447168 86.22056641 155.02099609 86.42675781 C185.8542096 92.35991511 185.8542096 92.35991511 194 104 C196.86546488 109.46123894 197.467932 113.81947676 197.375 119.9375 C197.38660156 120.69740234 197.39820313 121.45730469 197.41015625 122.24023438 C197.36295273 131.45278765 194.22212091 137.8671544 187.91796875 144.53125 C184.51807736 147.40773107 181.0810696 149.4852179 177.125 151.5 C176.48989502 151.82613281 175.85479004 152.15226562 175.20043945 152.48828125 C157.48580048 160.85915502 130.38269487 159.54334316 112.00390625 153.51171875 C106.15601516 151.38174828 100.51663192 148.88211829 95 146 C96.32 149.3 97.64 152.6 99 156 C89.1 156 79.2 156 69 156 C62.25 142.5 62.25 142.5 60.2265625 137.796875 C59.79472656 136.79785156 59.36289062 135.79882812 58.91796875 134.76953125 C58.49128906 133.77308594 58.06460938 132.77664063 57.625 131.75 C57.17511719 130.70714844 56.72523438 129.66429687 56.26171875 128.58984375 C55.17138878 126.06120615 54.08418881 123.53127523 53 121 C51.02 121 49.04 121 47 121 C47.54269531 122.14597656 48.08539063 123.29195312 48.64453125 124.47265625 C49.36725281 126.00257332 50.08990539 127.53252297 50.8125 129.0625 C51.16892578 129.81466797 51.52535156 130.56683594 51.89257812 131.34179688 C54.02389573 135.85862593 56.05382934 140.40047457 58 145 C58.46986328 146.04414062 58.46986328 146.04414062 58.94921875 147.109375 C60.21813505 149.929189 61 151.87404987 61 155 C48.46 155 35.92 155 23 155 C21.02 150.05 19.04 145.1 17 140 C15.47454787 136.65144655 13.90869087 133.33918881 12.28320312 130.0390625 C10.61247431 126.56937737 9.77206749 123.86033746 9 120 C-2.22 120 -13.44 120 -25 120 C-25.99 122.97 -26.98 125.94 -28 129 C-28.86066735 131.18804126 -29.7469413 133.36626466 -30.6640625 135.53125 C-31.14617187 136.67078125 -31.62828125 137.8103125 -32.125 138.984375 C-32.62 140.14453125 -33.115 141.3046875 -33.625 142.5 C-34.12773437 143.69109375 -34.63046875 144.8821875 -35.1484375 146.109375 C-38.86774554 154.86774554 -38.86774554 154.86774554 -40 156 C-42.14558827 156.08775605 -44.29404421 156.10695219 -46.44140625 156.09765625 C-47.74658203 156.09443359 -49.05175781 156.09121094 -50.39648438 156.08789062 C-51.7851569 156.07953401 -53.17382877 156.07106905 -54.5625 156.0625 C-55.95507656 156.05748666 -57.34765481 156.05292347 -58.74023438 156.04882812 C-62.1601987 156.03699434 -65.58007844 156.0205088 -69 156 C-68.32965861 151.00091812 -66.25271792 146.74380224 -64.18359375 142.19921875 C-63.80767593 141.36284378 -63.43175812 140.52646881 -63.04444885 139.66474915 C-61.84696728 137.00345615 -60.6423453 134.34546612 -59.4375 131.6875 C-58.62257325 129.87977073 -57.80811472 128.0718303 -56.99414062 126.26367188 C-55.00151138 121.83998264 -53.0024736 117.41924117 -51 113 C-52.98 113 -54.96 113 -57 113 C-56.48872542 108.03762906 -54.81478015 104.4395304 -52.25 100.25 C-49.23970998 95.22504897 -46.61618857 90.23089438 -44.3984375 84.79296875 C-43.93695313 84.20128906 -43.47546875 83.60960937 -43 83 C-42.05713135 82.93627197 -41.1142627 82.87254395 -40.14282227 82.80688477 C-36.74223059 82.30057326 -36.74223059 82.30057326 -35.01782227 79.12011719 C-34.42622228 77.85687258 -33.8604812 76.5813048 -33.31640625 75.296875 C-33.01177963 74.62207092 -32.70715302 73.94726685 -32.39329529 73.25201416 C-31.75482888 71.82442145 -31.12762277 70.39174669 -30.51098633 68.95458984 C-29.56670817 66.75978114 -28.58470406 64.58512121 -27.59570312 62.41015625 C-26.97945449 61.01925313 -26.36544604 59.62735488 -25.75390625 58.234375 C-25.46133438 57.58523132 -25.16876251 56.93608765 -24.86732483 56.26727295 C-23.24577603 52.43371923 -22.66038088 49.97943102 -24 46 C-25.23016241 43.19280972 -26.58015021 40.46439958 -27.94140625 37.71875 C-29.07121772 34.81709398 -29.56255283 33.06846998 -29 30 C-27.12890625 28.4375 -27.12890625 28.4375 -24.5625 27 C-16.28558127 21.66232798 -11.93832677 13.32858872 -7 5 C-5.68 5.66 -4.36 6.32 -3 7 C-2.01 4.69 -1.02 2.38 0 0 Z " fill="#E1EFEF" transform="translate(463,960)"/>
<path d="M0 0 C19.5215625 -0.0928125 19.5215625 -0.0928125 39.4375 -0.1875 C45.5485022 -0.22846802 45.5485022 -0.22846802 51.78295898 -0.27026367 C56.84777832 -0.28381348 56.84777832 -0.28381348 59.23622131 -0.28633118 C60.86633275 -0.2908681 62.49643564 -0.30126939 64.1264801 -0.31672668 C84.2622127 -0.49773376 106.73381558 1.15787626 122 16 C130.45758804 27.04361746 131.12248377 37.47564954 130 51 C128.41358731 58.81806972 123.5343934 66.42714092 117.25 71.37890625 C115.85539787 72.28740908 114.43022389 73.14867626 113 74 C112.67 74.66 112.34 75.32 112 76 C113.2065625 76.309375 113.2065625 76.309375 114.4375 76.625 C124.63437834 80.56063725 131.31850995 87.41369182 136.16796875 97.109375 C138.44012597 102.3940063 138.59475654 107.24815912 138.5 112.9375 C138.52320313 114.32485352 138.52320313 114.32485352 138.546875 115.74023438 C138.48695492 126.42847801 134.8379912 134.11004639 127.46484375 141.74609375 C115.46437176 152.71958398 98.5935756 156.18161516 82.76000977 156.11352539 C81.39086253 156.11370619 81.39086253 156.11370619 79.99405575 156.11389065 C77.05981386 156.1131484 74.12563668 156.1055517 71.19140625 156.09765625 C69.37170441 156.0961847 67.55200215 156.0951653 65.7322998 156.09460449 C59.00902672 156.08937633 52.28576271 156.07541506 45.5625 156.0625 C30.526875 156.041875 15.49125 156.02125 0 156 C0 104.52 0 53.04 0 0 Z " fill="#E0EDED" transform="translate(982,960)"/>
<path d="M0 0 C3.58292435 2.7786996 6.81799591 5.77372455 10 9 C10.64839844 9.63808594 11.29679688 10.27617188 11.96484375 10.93359375 C22.86366006 22.40477678 26.54130041 37.22949588 26.4921875 52.63867188 C25.93561657 70.18457058 18.59156457 84.89742823 6 97 C-11.09524401 111.21837447 -30.54446794 112.6225476 -52 111 C-66.01420138 108.8577017 -80.55562076 99.72862455 -88.97265625 88.328125 C-90.74853834 85.59831899 -92.40242834 82.83735384 -94 80 C-94.4125 79.28585937 -94.825 78.57171875 -95.25 77.8359375 C-100.00268842 69.06443167 -100.36361089 59.99921523 -100.375 50.1875 C-100.39949219 49.08857422 -100.42398438 47.98964844 -100.44921875 46.85742188 C-100.50204699 31.915835 -94.59308552 18.65599824 -84.4375 7.75 C-75.18590536 -0.96892707 -64.28589423 -6.00879879 -52 -9 C-50.85144531 -9.28617188 -50.85144531 -9.28617188 -49.6796875 -9.578125 C-32.69245576 -12.25249968 -14.55755651 -9.33920055 0 0 Z " fill="#E1EEEE" transform="translate(936,1006)"/>
<path d="M0 0 C9.24 0 18.48 0 28 0 C28.0093457 2.11301514 28.01869141 4.22603027 28.02832031 6.40307617 C28.06228557 13.43200524 28.11794102 20.46064674 28.18390274 27.4893446 C28.22319314 31.74543348 28.25547098 36.00132118 28.27099609 40.25756836 C28.28628554 44.37514348 28.32094401 48.49216478 28.36830902 52.60949135 C28.3829975 54.17007917 28.3910337 55.73074611 28.39188385 57.29140282 C28.23052884 73.87000888 28.23052884 73.87000888 35.5 88.125 C36.325 88.74375 37.15 89.3625 38 90 C38.61875 90.556875 39.2375 91.11375 39.875 91.6875 C47.22438185 96.22682408 56.54709931 95.96806004 64.81640625 94.5 C72.18323014 92.52051755 77.62233163 89.46796338 81.8125 83 C86.07641036 75.52068183 87.09157512 68.65096582 87.20532227 60.05493164 C87.21522186 59.40042023 87.22512146 58.74590881 87.23532104 58.07156372 C87.26660028 55.93446314 87.29155871 53.79734043 87.31640625 51.66015625 C87.33700489 50.16799889 87.35800207 48.67584697 87.37937927 47.18370056 C87.43429973 43.27607671 87.48384007 39.36840285 87.53222656 35.46069336 C87.58266231 31.46528731 87.63823259 27.46995296 87.69335938 23.47460938 C87.80057311 15.64979887 87.90162298 7.8249275 88 0 C97.24 0 106.48 0 116 0 C116 39.27 116 78.54 116 119 C107.09 119 98.18 119 89 119 C88.67 114.71 88.34 110.42 88 106 C86.906875 107.051875 85.81375 108.10375 84.6875 109.1875 C71.68026361 120.58036308 56.24716557 120.79092487 39.86523438 120.19091797 C28.12297288 119.40850075 18.78023689 113.119003 10.6875 104.875 C-0.1529532 92.0197555 -0.29790416 75.08168554 -0.1953125 59.1796875 C-0.19157569 57.46762254 -0.18873188 55.75555542 -0.18673706 54.04348755 C-0.17915312 49.56862332 -0.15955052 45.09389188 -0.1373291 40.61907959 C-0.11675691 36.04034216 -0.10771118 31.46158297 -0.09765625 26.8828125 C-0.07629894 17.9218077 -0.0411604 8.96093574 0 0 Z " fill="#E1EEEE" transform="translate(1450,997)"/>
<path d="M0 0 C9.24 0 18.48 0 28 0 C28.0093457 2.11301514 28.01869141 4.22603027 28.02832031 6.40307617 C28.06228557 13.43200524 28.11794102 20.46064674 28.18390274 27.4893446 C28.22319314 31.74543348 28.25547098 36.00132118 28.27099609 40.25756836 C28.28628554 44.37514348 28.32094401 48.49216478 28.36830902 52.60949135 C28.3829975 54.17007917 28.3910337 55.73074611 28.39188385 57.29140282 C28.23052884 73.87000888 28.23052884 73.87000888 35.5 88.125 C36.325 88.74375 37.15 89.3625 38 90 C38.61875 90.556875 39.2375 91.11375 39.875 91.6875 C47.22438185 96.22682408 56.54709931 95.96806004 64.81640625 94.5 C72.18323014 92.52051755 77.62233163 89.46796338 81.8125 83 C86.07641036 75.52068183 87.09157512 68.65096582 87.20532227 60.05493164 C87.21522186 59.40042023 87.22512146 58.74590881 87.23532104 58.07156372 C87.26660028 55.93446314 87.29155871 53.79734043 87.31640625 51.66015625 C87.33700489 50.16799889 87.35800207 48.67584697 87.37937927 47.18370056 C87.43429973 43.27607671 87.48384007 39.36840285 87.53222656 35.46069336 C87.58266231 31.46528731 87.63823259 27.46995296 87.69335938 23.47460938 C87.80057311 15.64979887 87.90162298 7.8249275 88 0 C97.24 0 106.48 0 116 0 C116 39.27 116 78.54 116 119 C107.09 119 98.18 119 89 119 C88.67 114.71 88.34 110.42 88 106 C86.906875 107.051875 85.81375 108.10375 84.6875 109.1875 C71.68026361 120.58036308 56.24716557 120.79092487 39.86523438 120.19091797 C28.12297288 119.40850075 18.78023689 113.119003 10.6875 104.875 C-0.1529532 92.0197555 -0.29790416 75.08168554 -0.1953125 59.1796875 C-0.19157569 57.46762254 -0.18873188 55.75555542 -0.18673706 54.04348755 C-0.17915312 49.56862332 -0.15955052 45.09389188 -0.1373291 40.61907959 C-0.11675691 36.04034216 -0.10771118 31.46158297 -0.09765625 26.8828125 C-0.07629894 17.9218077 -0.0411604 8.96093574 0 0 Z " fill="#E1EEEE" transform="translate(1139,997)"/>
<path d="M0 0 C0.495 0.99 0.495 0.99 1 2 C0.19555664 4.06298828 0.19555664 4.06298828 -1.08984375 6.5703125 C-1.77143555 7.91416016 -1.77143555 7.91416016 -2.46679688 9.28515625 C-2.95212891 10.22230469 -3.43746094 11.15945313 -3.9375 12.125 C-4.41896484 13.06988281 -4.90042969 14.01476562 -5.39648438 14.98828125 C-6.59061095 17.32924226 -7.79202599 19.66616264 -9 22 C-13.33659761 21.18303806 -16.98513843 19.81497242 -21.01171875 18.03515625 C-28.92623184 15.29352753 -36.79698078 14.63655065 -45.125 14.625 C-46.53072266 14.58826172 -46.53072266 14.58826172 -47.96484375 14.55078125 C-55.55779745 14.5189227 -60.8351168 16.22107816 -66.5625 21.25 C-68.24803956 24.47451045 -68.58430654 26.42406722 -67.83251953 29.96801758 C-66.25130342 33.82739051 -62.64407415 35.31280748 -59 37 C-55.23392787 38.14680356 -51.43457591 38.86850106 -47.5625 39.5625 C-45.4229327 39.98052196 -43.28361045 40.39980004 -41.14453125 40.8203125 C-39.57759521 41.12050293 -39.57759521 41.12050293 -37.97900391 41.42675781 C-7.1457904 47.35991511 -7.1457904 47.35991511 1 59 C3.86546488 64.46123894 4.467932 68.81947676 4.375 74.9375 C4.38660156 75.69740234 4.39820313 76.45730469 4.41015625 77.24023438 C4.36295273 86.45278765 1.22212091 92.8671544 -5.08203125 99.53125 C-8.48192264 102.40773107 -11.9189304 104.4852179 -15.875 106.5 C-16.51010498 106.82613281 -17.14520996 107.15226562 -17.79956055 107.48828125 C-35.50620943 115.85537938 -62.7076447 114.5682791 -81.07421875 108.5 C-87.93531487 105.97407418 -94.85492944 103.33911956 -100 98 C-99.06027344 96.33710937 -99.06027344 96.33710937 -98.1015625 94.640625 C-97.27599101 93.17711191 -96.45047298 91.71356866 -95.625 90.25 C-95.2125 89.52039062 -94.8 88.79078125 -94.375 88.0390625 C-93.97539063 87.33007812 -93.57578125 86.62109375 -93.1640625 85.890625 C-92.61419678 84.91657715 -92.61419678 84.91657715 -92.05322266 83.92285156 C-90.98445957 81.97162809 -89.98241497 79.99589444 -89 78 C-88.21238281 78.38671875 -87.42476562 78.7734375 -86.61328125 79.171875 C-76.23318068 84.13466864 -65.64035369 88.56416772 -54 89 C-52.25009766 89.07734375 -52.25009766 89.07734375 -50.46484375 89.15625 C-41.34810517 89.37527075 -33.56362347 89.10326396 -25.875 83.875 C-23.61020877 80.40232012 -23.4405259 78.14817737 -23.43359375 74.0859375 C-24.21239415 71.21780362 -25.54099574 70.60603298 -28 69 C-34.90847968 66.18716189 -42.29291964 65.20127954 -49.625 64.125 C-64.50737125 61.76918737 -78.6754348 59.13957486 -89.8125 48.25 C-95.823922 39.31874446 -97.30242885 30.94249021 -95.5625 20.33203125 C-93.17251131 10.69738934 -87.04973772 3.94565424 -78.88671875 -1.4296875 C-55.56915311 -14.11393836 -23.40174685 -11.69061336 0 0 Z " fill="#E0EDED" transform="translate(656,1005)"/>
<path d="M0 0 C0.495 0.99 0.495 0.99 1 2 C0.19555664 4.06298828 0.19555664 4.06298828 -1.08984375 6.5703125 C-1.77143555 7.91416016 -1.77143555 7.91416016 -2.46679688 9.28515625 C-2.95212891 10.22230469 -3.43746094 11.15945313 -3.9375 12.125 C-4.41896484 13.06988281 -4.90042969 14.01476562 -5.39648438 14.98828125 C-6.59061095 17.32924226 -7.79202599 19.66616264 -9 22 C-17.23540419 19.33570359 -17.23540419 19.33570359 -20.66015625 17.83203125 C-27.74572404 14.82498541 -34.60132676 14.60104938 -42.1875 14.5625 C-43.2091626 14.55259033 -44.2308252 14.54268066 -45.28344727 14.5324707 C-52.67116654 14.61577507 -59.77177764 15.24420042 -65.5625 20.1875 C-67.61826908 24.2096569 -67.57188337 26.49641847 -67 31 C-63.48322731 36.65741694 -56.04857399 37.52886577 -49.97265625 38.96875 C-43.93230685 40.35711496 -37.89826071 41.73589836 -31.76953125 42.67578125 C-20.18895884 44.47584135 -8.3422199 47.97453571 -0.33203125 57.140625 C5.06197432 64.67008732 6.05973111 71.83387219 5 81 C3.26045218 88.89487086 -0.21331648 94.43842773 -6 100 C-6.7425 100.721875 -7.485 101.44375 -8.25 102.1875 C-12.57060898 105.0351741 -17.18231969 107.12808767 -22 109 C-22.66475342 109.26474121 -23.32950684 109.52948242 -24.0144043 109.80224609 C-32.01418644 112.62391707 -40.06632884 112.5519686 -48.4375 112.5 C-49.56859192 112.49735641 -49.56859192 112.49735641 -50.72253418 112.49465942 C-68.68995435 112.40096487 -83.30517032 108.88434894 -99 100 C-97.51991304 94.99886406 -95.3681664 90.67084403 -92.875 86.125 C-92.50246094 85.43664063 -92.12992188 84.74828125 -91.74609375 84.0390625 C-90.83500474 82.35705202 -89.91809685 80.67819564 -89 79 C-85.34716888 79.58937523 -82.53039234 80.62529184 -79.25 82.3125 C-64.75132057 88.98926804 -45.35094219 92.71750982 -29.92578125 87.04296875 C-26.4962811 85.18561268 -24.99204261 83.38647244 -23 80 C-22.16650049 76.95659873 -22.16650049 76.95659873 -23 74 C-26.58163864 69.60679155 -29.82469311 68.0464068 -35.25 67 C-35.96873291 66.84466797 -36.68746582 66.68933594 -37.42797852 66.52929688 C-42.04679889 65.54687653 -46.68727852 64.67337137 -51.32421875 63.78125 C-52.96438965 63.46220703 -52.96438965 63.46220703 -54.63769531 63.13671875 C-56.78727052 62.72194425 -58.93892365 62.31775391 -61.09277344 61.92578125 C-73.1383263 59.63431955 -83.68113949 55.81905194 -91.4375 45.875 C-96.05841699 37.37251273 -96.07034825 28.51674685 -95 19 C-93.8628697 15.18087315 -92.31843139 12.2215413 -90 9 C-89.4225 8.0925 -88.845 7.185 -88.25 6.25 C-66.04782384 -15.95217616 -26.12908007 -13.01017995 0 0 Z " fill="#E0EDEE" transform="translate(1679,1005)"/>
<path d="M0 0 C9.24 0 18.48 0 28 0 C28 8.91 28 17.82 28 27 C38.56 27 49.12 27 60 27 C60 34.26 60 41.52 60 49 C49.44 49 38.88 49 28 49 C28.04672627 56.79160486 28.09727593 64.58160376 28.18379211 72.372612 C28.22301857 76.00143761 28.2554708 79.63002222 28.27099609 83.2590332 C28.28624655 86.76067303 28.32083721 90.26165647 28.36830902 93.7630024 C28.39015817 95.73520513 28.3924665 97.70759352 28.39434814 99.67991638 C28.52501775 107.76838528 29.27625332 114.78352328 34.80078125 121.0390625 C37.99132014 122.43315232 40.71693985 122.39622667 44.1875 122.375 C45.43917969 122.38273437 46.69085937 122.39046875 47.98046875 122.3984375 C52.5862637 122.15437569 56.71809214 120.62538482 61 119 C62.20282097 121.931458 63.38454273 124.87097242 64.5625 127.8125 C64.90474609 128.64587891 65.24699219 129.47925781 65.59960938 130.33789062 C65.91865234 131.14033203 66.23769531 131.94277344 66.56640625 132.76953125 C66.86490479 133.50792236 67.16340332 134.24631348 67.47094727 135.00708008 C68 137 68 137 67 140 C65.3984375 141.09765625 65.3984375 141.09765625 63.375 142.0625 C62.39660156 142.54396484 62.39660156 142.54396484 61.3984375 143.03515625 C49.52766149 147.81053357 33.02163685 148.62887048 21 143.9375 C12.55633884 139.51108732 6.67810543 133.83353773 3 125 C0.14388619 115.70177352 -0.40914379 106.83989065 -0.29296875 97.16796875 C-0.28735466 95.79649832 -0.28309317 94.42502176 -0.28010559 93.05354309 C-0.26879905 89.49102363 -0.23945966 85.92888708 -0.20599365 82.36651611 C-0.17498141 78.71249568 -0.16153459 75.05841174 -0.14648438 71.40429688 C-0.11457177 64.2693621 -0.0619253 57.13474677 0 50 C-6.27 50 -12.54 50 -19 50 C-19 42.41 -19 34.82 -19 27 C-12.73 27 -6.46 27 0 27 C0 18.09 0 9.18 0 0 Z " fill="#E0EDED" transform="translate(679,971)"/>
<path d="M0 0 C0.99 0 1.98 0 3 0 C3.50660156 0.92232422 3.50660156 0.92232422 4.0234375 1.86328125 C4.46945312 2.67152344 4.91546875 3.47976563 5.375 4.3125 C5.81585938 5.11300781 6.25671875 5.91351562 6.7109375 6.73828125 C7.73513335 8.53527943 8.85267138 10.27900708 10 12 C10 13.32 10 14.64 10 16 C17.65008359 14.74588794 23.33319274 11.86359854 30 8 C32.75637373 6.46812136 33.77004341 6 37 6 C37 6.66 37 7.32 37 8 C36.34 8 35.68 8 35 8 C34.84156616 9.05030396 34.84156616 9.05030396 34.67993164 10.12182617 C33.90313276 13.41004235 32.65025894 16.03774743 31.12109375 19.05078125 C30.23973755 20.79911255 30.23973755 20.79911255 29.34057617 22.58276367 C28.70635216 23.82607784 28.07199075 25.06932193 27.4375 26.3125 C26.79149959 27.58865818 26.14607553 28.86510827 25.5012207 30.1418457 C24.23587092 32.64571489 22.96771595 35.14812931 21.69726562 37.64941406 C19.98440851 41.0307793 18.29357836 44.42220804 16.61230469 47.81933594 C13.22186656 54.66823577 9.68929648 61.43387976 6.05541992 68.15698242 C3.8007505 72.35856375 1.85306114 76.60136776 0 81 C-1.45075531 84.180165 -2.94255955 87.34040968 -4.4375 90.5 C-4.81970703 91.31597656 -5.20191406 92.13195313 -5.59570312 92.97265625 C-7.31537325 96.61053228 -9.0605842 100.18460652 -11.09765625 103.65625 C-13.37509449 107.51391638 -13.37509449 107.51391638 -16 114 C-18.97 119.61 -21.94 125.22 -25 131 C-38.2 131 -51.4 131 -65 131 C-63.52859123 122.1715474 -59.56102754 114.95764862 -55.375 107.125 C-54.49085721 105.4570462 -53.60674348 103.789077 -52.72265625 102.12109375 C-52.27293457 101.27530762 -51.82321289 100.42952148 -51.35986328 99.55810547 C-49.16992906 95.43851288 -46.98946903 91.31395609 -44.8125 87.1875 C-44.39564941 86.39891602 -43.97879883 85.61033203 -43.54931641 84.79785156 C-41.03644822 80.02688519 -38.61631562 75.21996476 -36.25 70.375 C-33.95260007 65.71533237 -31.40268105 61.51537919 -28.42333984 57.27099609 C-27.01241209 55.019804 -26.08509691 52.90721957 -25.16015625 50.421875 C-22.96526624 44.77831657 -20.34969229 39.40397305 -17.625 34 C-17.16867187 33.07960938 -16.71234375 32.15921875 -16.2421875 31.2109375 C-13.50286943 25.74769078 -10.53700318 20.50440557 -7.35205078 15.29003906 C-5.54468846 12.22881505 -4.07531384 9.12094049 -2.625 5.875 C-2.12226563 4.75867188 -1.61953125 3.64234375 -1.1015625 2.4921875 C-0.73804688 1.66976562 -0.37453125 0.84734375 0 0 Z " fill="#2675A5" transform="translate(386,984)"/>
<path d="M0 0 C0 8.58 0 17.16 0 26 C-3.58875 26.0928125 -3.58875 26.0928125 -7.25 26.1875 C-17.19191976 26.70974487 -25.53684554 28.90306984 -32.5625 36.375 C-38.33191611 43.58078527 -40.0845946 50.55996206 -40.20532227 59.71801758 C-40.22017166 60.69934662 -40.22017166 60.69934662 -40.23532104 61.70050049 C-40.26673914 63.84847478 -40.29161492 65.99647113 -40.31640625 68.14453125 C-40.33699282 69.63954725 -40.35798973 71.13455765 -40.37937927 72.62956238 C-40.43442415 76.55365448 -40.48391053 80.47779758 -40.53222656 84.40197754 C-40.58257044 88.41060901 -40.63818907 92.41916694 -40.69335938 96.42773438 C-40.80072571 104.28509561 -40.90173015 112.14251973 -41 120 C-50.24 120 -59.48 120 -69 120 C-69 80.73 -69 41.46 -69 1 C-60.09 1 -51.18 1 -42 1 C-41.67 5.95 -41.34 10.9 -41 16 C-39.68 14.35 -38.36 12.7 -37 11 C-25.70660895 1.7930151 -14.30253595 0 0 0 Z " fill="#E1EEEE" transform="translate(830,996)"/>
<path d="M0 0 C0 8.58 0 17.16 0 26 C-2.43375 26.0825 -4.8675 26.165 -7.375 26.25 C-17.14168186 26.78150666 -24.9386323 29.03673709 -32.2421875 35.8671875 C-37.89677175 42.72808305 -40.09088795 50.90748444 -40.20532227 59.60449219 C-40.22017166 60.58560219 -40.22017166 60.58560219 -40.23532104 61.58653259 C-40.26680851 63.73994374 -40.29164272 65.89337692 -40.31640625 68.046875 C-40.33698681 69.54332032 -40.35798357 71.03975996 -40.37937927 72.53619385 C-40.43448618 76.46852009 -40.48394547 80.40089781 -40.53222656 84.33331299 C-40.58252486 88.34855716 -40.63816739 92.36372689 -40.69335938 96.37890625 C-40.8008017 104.25254284 -40.90178331 112.12624292 -41 120 C-50.24 120 -59.48 120 -69 120 C-69 80.73 -69 41.46 -69 1 C-60.09 1 -51.18 1 -42 1 C-41.67 5.95 -41.34 10.9 -41 16 C-39.88625 14.783125 -38.7725 13.56625 -37.625 12.3125 C-27.11652576 1.85943073 -14.43810421 0 0 0 Z " fill="#E1EEEE" transform="translate(1351,996)"/>
<path d="M0 0 C0 8.58 0 17.16 0 26 C-2.26875 26.0825 -4.5375 26.165 -6.875 26.25 C-13.5419229 26.61914049 -19.02493656 27.88306483 -25 31 C-26.0725 31.53625 -27.145 32.0725 -28.25 32.625 C-34.9243864 38.3892428 -38.56862382 46.69700395 -39.2784729 55.42332458 C-39.29179657 56.615793 -39.30512024 57.80826141 -39.31884766 59.03686523 C-39.32889328 59.70113022 -39.3389389 60.3653952 -39.34928894 61.04978943 C-39.37988569 63.21938301 -39.39708957 65.38885459 -39.4140625 67.55859375 C-39.43279316 69.0731764 -39.45236796 70.58774882 -39.4727478 72.10231018 C-39.52387481 76.06910142 -39.56360388 80.03592641 -39.60089111 84.00286865 C-39.64105327 88.05863666 -39.69208963 92.11426658 -39.7421875 96.16992188 C-39.83871648 104.11319346 -39.9221879 112.05652299 -40 120 C-49.24 120 -58.48 120 -68 120 C-68 81.06 -68 42.12 -68 2 C-59.42 2 -50.84 2 -42 2 C-41.67 6.95 -41.34 11.9 -41 17 C-40.21625 15.96875 -39.4325 14.9375 -38.625 13.875 C-28.69812551 2.33646823 -14.4430247 0 0 0 Z " fill="#E1EEEE" transform="translate(1435,996)"/>
<path d="M0 0 C1.02369879 20.61615622 -3.35350595 41.70191926 -15 59 C-16.02287109 60.56041016 -16.02287109 60.56041016 -17.06640625 62.15234375 C-24.31218117 73.0473922 -31.93507767 81.8786313 -43 89 C-43.928125 89.70125 -44.85625 90.4025 -45.8125 91.125 C-54.05456622 95.97327425 -63.1245467 98.94107891 -72.6875 99.375 C-73.43386719 99.42398438 -74.18023437 99.47296875 -74.94921875 99.5234375 C-77 99 -77 99 -78.7421875 96.91015625 C-82.97885573 87.10792696 -79.6325223 74.46097617 -76 65 C-63.05602754 33.84434 -36.4138037 14.29894214 -6.4140625 0.83984375 C-4 0 -4 0 0 0 Z " fill="#56C3F8" transform="translate(476,880)"/>
<path d="M0 0 C9.13036095 5.81890168 13.95550421 13.39471114 17.23046875 23.57421875 C19.48234763 35.76620943 17.54547267 46.93541948 10.66015625 57.0859375 C4.93567325 64.32089594 -2.4094843 68.63078073 -11.3828125 70.66796875 C-22.11646751 71.89149419 -31.56019168 69.69838175 -40.34765625 63.390625 C-43.72072697 60.5354922 -46.1262487 57.45405756 -48.3828125 53.66796875 C-49.00349609 52.6625 -49.00349609 52.6625 -49.63671875 51.63671875 C-54.50140284 42.00905129 -54.0894193 27.69973774 -50.9453125 17.54296875 C-46.8956089 8.55460223 -39.8508839 1.69029386 -30.88671875 -2.328125 C-20.77173345 -5.22617542 -9.47511764 -4.68506509 0 0 Z " fill="#03081B" transform="translate(916.3828125,1023.33203125)"/>
<path d="M0 0 C7.34890108 -0.08425492 14.69601801 -0.16434542 22.04498291 -0.20700073 C25.46835332 -0.22798479 28.89131727 -0.25594817 32.31445312 -0.30175781 C36.25645777 -0.35417147 40.19830569 -0.37306136 44.140625 -0.390625 C45.95074066 -0.42159271 45.95074066 -0.42159271 47.79742432 -0.45318604 C56.83028044 -0.45553806 66.15563444 0.72859044 73.5625 6.375 C78.95260666 12.17973025 79.5555783 17.05530214 79.34375 24.8046875 C78.77763025 30.06702794 77.27056624 33.75884524 73.4921875 37.48828125 C65.02871789 44.1606445 55.59278473 44.42213069 45.21484375 44.29296875 C43.26959557 44.28660149 43.26959557 44.28660149 41.28504944 44.28010559 C37.86713744 44.26874898 34.44961883 44.23936355 31.03186035 44.20599365 C27.53236302 44.17509234 24.03279911 44.16139239 20.53320312 44.14648438 C13.68845671 44.1160813 6.84478505 44.05734074 0 44 C0 29.48 0 14.96 0 0 Z " fill="#02071A" transform="translate(1012,1049)"/>
<path d="M0 0 C6.455899 -0.06930786 12.91047887 -0.12890978 19.36645508 -0.16479492 C21.55725507 -0.17977282 23.74802565 -0.20016228 25.9387207 -0.22631836 C58.40602732 -0.60393128 58.40602732 -0.60393128 68 8 C72.18842178 13.13081668 72.63315465 17.50125095 72.37890625 24.0625 C71.62308177 29.92208769 69.51145178 34.10772293 64.875 37.8125 C56.70547534 42.8014627 48.23546542 43.429307 38.8671875 43.29296875 C37.74933868 43.28872391 36.63148987 43.28447906 35.47976685 43.28010559 C31.94458906 43.26344759 28.41000257 43.22581916 24.875 43.1875 C22.46354996 43.17243654 20.05209089 43.15875106 17.640625 43.14648438 C11.76001115 43.11615108 5.88065958 43.0574034 0 43 C0 28.81 0 14.62 0 0 Z " fill="#04091C" transform="translate(1011,983)"/>
<path d="M0 0 C2.83536486 3.38775013 4.49518812 7.09625641 6.1875 11.1328125 C6.63644875 12.18522377 6.63644875 12.18522377 7.09446716 13.25889587 C8.06831106 15.54537274 9.03431947 17.83506485 10 20.125 C10.66892392 21.70127232 11.33827924 23.27736163 12.00805664 24.85327148 C13.36000508 28.03653721 14.70876416 31.22112695 16.05517578 34.40673828 C17.83641632 38.61859442 19.63291962 42.82376831 21.43359375 47.02734375 C22.43510475 49.37230662 23.43642021 51.71735301 24.4375 54.0625 C24.90349609 55.14869629 25.36949219 56.23489258 25.84960938 57.35400391 C26.26919922 58.34190918 26.68878906 59.32981445 27.12109375 60.34765625 C27.4864624 61.20367432 27.85183105 62.05969238 28.22827148 62.94165039 C29 65 29 65 29 67 C10.19 67 -8.62 67 -28 67 C-27.29459621 63.47298104 -26.73338927 61.04806615 -25.36108398 57.87841797 C-25.02660751 57.09925018 -24.69213104 56.3200824 -24.34751892 55.51730347 C-23.80231346 54.26737106 -23.80231346 54.26737106 -23.24609375 52.9921875 C-22.86695328 52.11209015 -22.48781281 51.2319928 -22.09718323 50.32522583 C-20.88183375 47.50649556 -19.65991105 44.69067405 -18.4375 41.875 C-17.2460779 39.11936615 -16.05604392 36.36313668 -14.86636353 33.60675049 C-14.07944606 31.78407121 -13.29166863 29.96176297 -12.50302124 28.13983154 C-9.42836508 21.02744893 -6.41629215 13.88988217 -3.45225525 6.73068237 C-1.10782552 1.10782552 -1.10782552 1.10782552 0 0 Z " fill="#41CFF9" transform="translate(477,990)"/>
<path d="M0 0 C12.21 0 24.42 0 37 0 C46.08450704 18.16901408 46.08450704 18.16901408 49 25 C49.29777344 25.65613281 49.59554687 26.31226563 49.90234375 26.98828125 C51.18816342 29.85026697 52 31.82261784 52 35 C39.46 35 26.92 35 14 35 C12.02 30.05 10.04 25.1 8 20 C6.47454787 16.65144655 4.90869087 13.33918881 3.28320312 10.0390625 C1.61247431 6.56937737 0.77206749 3.86033746 0 0 Z " fill="#42CEF8" transform="translate(472,1080)"/>
<path d="M0 0 C2.83536486 3.38775013 4.49518812 7.09625641 6.1875 11.1328125 C6.48679916 11.83442001 6.78609833 12.53602753 7.09446716 13.25889587 C8.06831106 15.54537274 9.03431947 17.83506485 10 20.125 C10.66892392 21.70127232 11.33827924 23.27736163 12.00805664 24.85327148 C13.36000508 28.03653721 14.70876416 31.22112695 16.05517578 34.40673828 C17.83641632 38.61859442 19.63291962 42.82376831 21.43359375 47.02734375 C22.43510475 49.37230662 23.43642021 51.71735301 24.4375 54.0625 C24.90349609 55.14869629 25.36949219 56.23489258 25.84960938 57.35400391 C26.26919922 58.34190918 26.68878906 59.32981445 27.12109375 60.34765625 C27.4864624 61.20367432 27.85183105 62.05969238 28.22827148 62.94165039 C29 65 29 65 29 67 C26.36 67 23.72 67 21 67 C20.78496826 66.48953125 20.56993652 65.9790625 20.34838867 65.453125 C14.97441357 52.72818369 9.37033051 40.12587455 3.578125 27.5859375 C3.15724609 26.66651367 2.73636719 25.74708984 2.30273438 24.79980469 C1.40106906 22.86196776 0.47344382 20.93607755 -0.47460938 19.02050781 C-0.94189453 18.05725586 -1.40917969 17.09400391 -1.890625 16.1015625 C-2.31891602 15.24127441 -2.74720703 14.38098633 -3.18847656 13.49462891 C-4.55938928 9.28043331 -3.27696872 6.58717369 -1.4375 2.6875 C-0.7259375 1.3571875 -0.7259375 1.3571875 0 0 Z " fill="#090B15" transform="translate(477,990)"/>
<path d="M0 0 C0.99 0.33 1.98 0.66 3 1 C4.42766848 5.28300544 2.50026759 7.93488291 0.66796875 11.80859375 C0.31616043 12.57172379 -0.03564789 13.33485382 -0.39811707 14.12110901 C-1.52713151 16.56425062 -2.66967137 19.00079438 -3.8125 21.4375 C-4.57184524 23.07576349 -5.33031949 24.71443099 -6.08789062 26.35351562 C-11.8020383 38.69014769 -11.8020383 38.69014769 -14 43 C-14.66 43 -15.32 43 -16 43 C-16.26554687 42.39671875 -16.53109375 41.7934375 -16.8046875 41.171875 C-17.15789062 40.37265625 -17.51109375 39.5734375 -17.875 38.75 C-18.22304688 37.96109375 -18.57109375 37.1721875 -18.9296875 36.359375 C-19.9432537 34.02818891 -19.9432537 34.02818891 -21.1328125 32.015625 C-22.24547907 29.42942703 -22.45962793 27.78454204 -22 25 C-20.12890625 23.4375 -20.12890625 23.4375 -17.5625 22 C-9.28558127 16.66232798 -4.93832677 8.32858872 0 0 Z " fill="#44D5FA" transform="translate(456,965)"/>
<path d="M0 0 C2 2 2 2 2 5 C2.66 5 3.32 5 4 5 C3.67 6.65 3.34 8.3 3 10 C3.99 9.67 4.98 9.34 6 9 C6.33 8.01 6.66 7.02 7 6 C8.32 6.33 9.64 6.66 11 7 C10.34 7 9.68 7 9 7 C9.33 7.66 9.66 8.32 10 9 C10.99 9.33 11.98 9.66 13 10 C13 9.34 13 8.68 13 8 C14.32 8 15.64 8 17 8 C17 9.32 17 10.64 17 12 C14.36 12 11.72 12 9 12 C9 12.66 9 13.32 9 14 C8.34 14 7.68 14 7 14 C6.690625 14.61875 6.38125 15.2375 6.0625 15.875 C5.375 17.25 4.6875 18.625 4 20 C5.32 20.33 6.64 20.66 8 21 C8 22.32 8 23.64 8 25 C6.68 25 5.36 25 4 25 C4 24.01 4 23.02 4 22 C1.03 22.66 -1.94 23.32 -5 24 C-5 22.68 -5 21.36 -5 20 C-5.66 20 -6.32 20 -7 20 C-9 18 -9 18 -9.125 14.375 C-9.08375 13.26125 -9.0425 12.1475 -9 11 C-8.01 11 -7.02 11 -6 11 C-6 9.68 -6 8.36 -6 7 C-4.5625 5.4375 -4.5625 5.4375 -3 4 C-2.67 3.01 -2.34 2.02 -2 1 C-1.34 0.67 -0.68 0.34 0 0 Z " fill="#277EAD" transform="translate(373,1018)"/>
<path d="M0 0 C0.33 0 0.66 0 1 0 C1.144375 0.928125 1.28875 1.85625 1.4375 2.8125 C1.92100111 6.00725111 1.92100111 6.00725111 3 9 C3.66 9 4.32 9 5 9 C5 10.32 5 11.64 5 13 C5.66 13 6.32 13 7 13 C7.33 12.34 7.66 11.68 8 11 C9.32 11 10.64 11 12 11 C11 14 11 14 10 16 C7.67843403 16.40729228 5.3431213 16.74438677 3 17 C3.515625 17.70125 4.03125 18.4025 4.5625 19.125 C6.30443767 22.60887535 5.94693195 24.2983569 5 28 C2.69 28 0.38 28 -2 28 C-2 26.68 -2 25.36 -2 24 C-2.99 23.67 -3.98 23.34 -5 23 C-5 22.01 -5 21.02 -5 20 C-5.99 20.66 -6.98 21.32 -8 22 C-8.51818715 16.55903494 -7.04874736 14.40374619 -4 10 C-2.53933335 6.71350004 -1.25237969 3.3707666 0 0 Z M0 7 C1 9 1 9 1 9 Z " fill="#2A77A5" transform="translate(363,1029)"/>
<path d="M0 0 C1.98 0 3.96 0 6 0 C2.12378339 10.54778174 -2.37104202 20.76575294 -7 31 C-9.31 30.67 -11.62 30.34 -14 30 C-13.48861443 25.0365518 -11.81272052 21.44131071 -9.25 17.25 C-8.52389906 16.02470466 -7.79995115 14.79813099 -7.078125 13.5703125 C-6.72427734 12.96993164 -6.37042969 12.36955078 -6.00585938 11.75097656 C-3.8127301 7.93322821 -1.90202496 3.96864824 0 0 Z " fill="#50CDE8" transform="translate(420,1043)"/>
<path d="M0 0 C2.31 0 4.62 0 7 0 C10.32572438 6.43916848 13.50885985 12.9334246 16.4375 19.5625 C16.95183594 20.71878906 17.46617187 21.87507813 17.99609375 23.06640625 C19 26 19 26 18 29 C17.67 29.33 17.34 29.66 17 30 C16.63557767 31.66014616 16.30027117 33.32706064 16 35 C11.26584928 27.89877392 8.18420422 20.10274798 5.203125 12.140625 C3.62465089 8.02019258 1.85185383 4.00372868 0 0 Z " fill="#0C0F1A" transform="translate(509,1080)"/>
<path d="M0 0 C0.66 0 1.32 0 2 0 C2 2.97 2 5.94 2 9 C4.31 9 6.62 9 9 9 C7.625 10.5 7.625 10.5 6 12 C5.34 12 4.68 12 4 12 C4 14.31 4 16.62 4 19 C3.608125 18.484375 3.21625 17.96875 2.8125 17.4375 C1.047528 15.69591506 1.047528 15.69591506 -1.5625 16.25 C-3.97602515 16.919513 -3.97602515 16.919513 -6 18 C-5.8453125 16.39125 -5.8453125 16.39125 -5.6875 14.75 C-5.5867332 10.86024403 -5.5867332 10.86024403 -8.5 8.6875 C-9.325 8.130625 -10.15 7.57375 -11 7 C-11 6.34 -11 5.68 -11 5 C-7.7 5.33 -4.4 5.66 -1 6 C-0.67 4.02 -0.34 2.04 0 0 Z " fill="#8F8F97" transform="translate(1370,828)"/>
<path d="M0 0 C0.66 0 1.32 0 2 0 C2 2.64 2 5.28 2 8 C4.64 8 7.28 8 10 8 C10 8.66 10 9.32 10 10 C8.68 10.33 7.36 10.66 6 11 C6.33 13.97 6.66 16.94 7 20 C6.01 19.67 5.02 19.34 4 19 C4 18.34 4 17.68 4 17 C0.04 17.495 0.04 17.495 -4 18 C-3.67 15.36 -3.34 12.72 -3 10 C-4.98 9.34 -6.96 8.68 -9 8 C-5.67465243 6.89155081 -3.37817425 7.15545644 0 8 C0 5.36 0 2.72 0 0 Z " fill="#A0A1A3" transform="translate(1451,816)"/>
<path d="M0 0 C0.66 0 1.32 0 2 0 C2.33 1.32 2.66 2.64 3 4 C5.31 4.66 7.62 5.32 10 6 C10 6.66 10 7.32 10 8 C9.01 8.33 8.02 8.66 7 9 C7 11.64 7 14.28 7 17 C6.443125 16.46375 5.88625 15.9275 5.3125 15.375 C4.549375 14.92125 3.78625 14.4675 3 14 C0.39529669 14.67518454 0.39529669 14.67518454 -2 16 C-2.99 16.33 -3.98 16.66 -5 17 C-4.67 14.03 -4.34 11.06 -4 8 C-4.99 8 -5.98 8 -7 8 C-7 7.34 -7 6.68 -7 6 C-5.35 6 -3.7 6 -2 6 C-1.34 4.02 -0.68 2.04 0 0 Z " fill="#9395A1" transform="translate(1562,836)"/>
<path d="M0 0 C1.32 0 2.64 0 4 0 C5 3 5 3 5 7 C5.61998741 9.01495907 6.27954236 11.0187415 7 13 C7.66 13 8.32 13 9 13 C10.00777029 15.74737377 11.00641446 18.49749952 12 21.25 C12.28617187 22.02730469 12.57234375 22.80460937 12.8671875 23.60546875 C13.13789063 24.35957031 13.40859375 25.11367187 13.6875 25.890625 C13.93886719 26.58188477 14.19023437 27.27314453 14.44921875 27.98535156 C15 30 15 30 15 34 C26.88 34 38.76 34 51 34 C51.495 33.01 51.495 33.01 52 32 C52 32.99 52 33.98 52 35 C39.46 35 26.92 35 14 35 C12.02 30.05 10.04 25.1 8 20 C6.47454787 16.65144655 4.90869087 13.33918881 3.28320312 10.0390625 C1.67878124 6.70708025 0.5327611 3.66705692 0 0 Z " fill="#4CB2D6" transform="translate(472,1080)"/>
<path d="M0 0 C0.66 0 1.32 0 2 0 C2 1.65 2 3.3 2 5 C4.64 5 7.28 5 10 5 C10 5.66 10 6.32 10 7 C8.35 7.66 6.7 8.32 5 9 C5 10.98 5 12.96 5 15 C3 15 3 15 1.375 13.5 C0.92125 13.005 0.4675 12.51 0 12 C-0.99 13.485 -0.99 13.485 -2 15 C-2.66 15 -3.32 15 -4 15 C-4 12.69 -4 10.38 -4 8 C-4.99 7.67 -5.98 7.34 -7 7 C-7 6.34 -7 5.68 -7 5 C-5.02 5 -3.04 5 -1 5 C-0.67 3.35 -0.34 1.7 0 0 Z " fill="#97989D" transform="translate(1273,893)"/>
<path d="M0 0 C0.02716824 2.54173977 0.04691969 5.08318415 0.0625 7.625 C0.07087891 8.33785156 0.07925781 9.05070313 0.08789062 9.78515625 C0.10710296 13.97344438 -0.1732673 17.8728462 -1 22 C-1.33 22 -1.66 22 -2 22 C-2.33 20.35 -2.66 18.7 -3 17 C-4.65 18.32 -6.3 19.64 -8 21 C-8.1875 18.6875 -8.1875 18.6875 -8 16 C-7.505 15.525625 -7.01 15.05125 -6.5 14.5625 C-4.67471561 12.99036448 -4.67471561 12.99036448 -4.75 9.9375 C-4.81186321 7.06814404 -4.81186321 7.06814404 -6 5 C-6.66 5 -7.32 5 -8 5 C-5.96115496 0.48541456 -5.19128917 0 0 0 Z " fill="#5BABE6" transform="translate(476,880)"/>
<path d="M0 0 C1.08664802 3.35873023 1.04958369 4.85675822 -0.125 8.25 C-2 11 -2 11 -4.6875 11.875 C-5.450625 11.91625 -6.21375 11.9575 -7 12 C-8.81602517 16.53832753 -8.81602517 16.53832753 -8 21 C-9.65 21.33 -11.3 21.66 -13 22 C-13 21.01 -13 20.02 -13 19 C-12.34 19 -11.68 19 -11 19 C-11.05929687 18.14019531 -11.11859375 17.28039062 -11.1796875 16.39453125 C-10.97228517 12.47643076 -9.92871179 10.15252529 -8.125 6.6875 C-7.59132813 5.63949219 -7.05765625 4.59148438 -6.5078125 3.51171875 C-4.50851708 0.18128623 -3.87166926 0 0 0 Z " fill="#2F779F" transform="translate(388,989)"/>
<path d="M0 0 C0.33 0.99 0.66 1.98 1 3 C1.969375 2.979375 2.93875 2.95875 3.9375 2.9375 C7 3 7 3 8 4 C9.0725 3.773125 10.145 3.54625 11.25 3.3125 C15 3 15 3 17.9375 4.9375 C18.9584375 5.9584375 18.9584375 5.9584375 20 7 C14.1071696 8.56027661 8.11504862 9.87911904 2 9 C0 7 0 7 -0.125 3.375 C-0.08375 2.26125 -0.0425 1.1475 0 0 Z " fill="#4FC4E7" transform="translate(397,970)"/>
<path d="M0 0 C2.13183766 2.67310097 3.64827985 5.17305995 4.9375 8.3359375 C5.27523438 9.15320313 5.61296875 9.97046875 5.9609375 10.8125 C6.30382812 11.658125 6.64671875 12.50375 7 13.375 C7.68557184 15.05026953 8.37303221 16.72476761 9.0625 18.3984375 C9.38734375 19.19088867 9.7121875 19.98333984 10.046875 20.79980469 C10.87613313 22.71406552 11.83428098 24.57146891 12.8125 26.4140625 C14 29 14 29 13 32 C12.67 30.68 12.34 29.36 12 28 C11.34 28 10.68 28 10 28 C9.5978125 26.8553125 9.5978125 26.8553125 9.1875 25.6875 C8.20735832 23.00893218 8.20735832 23.00893218 6.4375 21.5 C4.52200488 19.50122248 4.49232909 17.67264366 4 15 C3.34 14.67 2.68 14.34 2 14 C-0.11596899 9.18029285 -0.17786056 5.15795631 0 0 Z " fill="#50BADB" transform="translate(475,1005)"/>
<path d="M0 0 C0.99 0.33 1.98 0.66 3 1 C4.39211215 5.17633644 2.9535579 6.78960515 1.0625 10.6875 C0.49660156 11.86699219 -0.06929688 13.04648437 -0.65234375 14.26171875 C-1.09707031 15.16535156 -1.54179687 16.06898438 -2 17 C-2.66 17 -3.32 17 -4 17 C-4.33 16.34 -4.66 15.68 -5 15 C-5.99 14.34 -6.98 13.68 -8 13 C-5.36 8.71 -2.72 4.42 0 0 Z " fill="#48C9EA" transform="translate(456,965)"/>
<path d="M0 0 C0.33 1.32 0.66 2.64 1 4 C0.34 4 -0.32 4 -1 4 C-1 7.96 -1 11.92 -1 16 C-2.32 15.67 -3.64 15.34 -5 15 C-5.33 16.65 -5.66 18.3 -6 20 C-6.99 20.33 -7.98 20.66 -9 21 C-9 22.32 -9 23.64 -9 25 C-9.99 25 -10.98 25 -12 25 C-10.37317535 19.29676416 -7.66802013 14.31986097 -4.875 9.125 C-4.40707031 8.24585938 -3.93914062 7.36671875 -3.45703125 6.4609375 C-2.3087907 4.30505729 -1.15636097 2.15153223 0 0 Z " fill="#2D719A" transform="translate(376,1004)"/>
<path d="M0 0 C0.66 0 1.32 0 2 0 C2 2.31 2 4.62 2 7 C2.99 6.67 3.98 6.34 5 6 C4.75 7.875 4.75 7.875 4 10 C1.02813965 11.90408138 -1.27587335 12.24005291 -4.765625 12.1953125 C-5.65507812 12.18886719 -6.54453125 12.18242188 -7.4609375 12.17578125 C-8.38132812 12.15902344 -9.30171875 12.14226562 -10.25 12.125 C-11.18585938 12.11597656 -12.12171875 12.10695313 -13.0859375 12.09765625 C-15.39088657 12.07413636 -17.6953116 12.04126853 -20 12 C-19.67 11.34 -19.34 10.68 -19 10 C-12.73 10 -6.46 10 0 10 C-0.33 8.02 -0.66 6.04 -1 4 C-0.5625 1.625 -0.5625 1.625 0 0 Z " fill="#39D5F7" transform="translate(514,1099)"/>
<path d="M0 0 C1.42699219 0.05994141 1.42699219 0.05994141 2.8828125 0.12109375 C2.15232168 2.27364662 1.3977853 4.41805239 0.6328125 6.55859375 C0.21515625 7.75355469 -0.2025 8.94851563 -0.6328125 10.1796875 C-2.1171875 13.12109375 -2.1171875 13.12109375 -4.2890625 14.03125 C-4.89234375 14.06089844 -5.495625 14.09054687 -6.1171875 14.12109375 C-6.37083648 9.80906117 -6.49598039 6.15225217 -4.9921875 2.05859375 C-3.1171875 0.12109375 -3.1171875 0.12109375 0 0 Z " fill="#4DD7F1" transform="translate(423.1171875,1042.87890625)"/>
<path d="M0 0 C2.13533172 2.59953427 3.56459104 4.62558054 4 8 C3 11 3 11 1 12 C1 14.31 1 16.62 1 19 C-4.1173913 12.48695652 -4.1173913 12.48695652 -3.8125 8.625 C-2.86046637 5.54919903 -1.5165303 2.8352523 0 0 Z " fill="#0E1017" transform="translate(477,990)"/>
<path d="M0 0 C1.89213369 2.38573379 3.02391783 4.07175348 4 7 C3.0625 10.1875 3.0625 10.1875 2 13 C1.01 13 0.02 13 -1 13 C-1 12.34 -1 11.68 -1 11 C-1.66 11 -2.32 11 -3 11 C-3 12.32 -3 13.64 -3 15 C-3.99 15 -4.98 15 -6 15 C-4.36041242 9.76727367 -2.61047965 4.84803364 0 0 Z " fill="#2374A6" transform="translate(328,1096)"/>
<path d="M0 0 C-0.33 0.66 -0.66 1.32 -1 2 C-2.134375 2.12375 -3.26875 2.2475 -4.4375 2.375 C-6.2009375 2.684375 -6.2009375 2.684375 -8 3 C-8.66 4.32 -9.32 5.64 -10 7 C-5.545 6.505 -5.545 6.505 -1 6 C-1.99 7.32 -2.98 8.64 -4 10 C-2.35 9.34 -0.7 8.68 1 8 C0.67 8.99 0.34 9.98 0 11 C-3.3 11 -6.6 11 -10 11 C-10.66 8.36 -11.32 5.72 -12 3 C-8.2391768 -0.7608232 -5.0273023 -0.25136512 0 0 Z " fill="#3D89B5" transform="translate(393,1010)"/>
<path d="M0 0 C0.99 0.33 1.98 0.66 3 1 C3.79953138 4.28696233 4.09658936 5.71023192 3 9 C0.69 9 -1.62 9 -4 9 C-3.38461538 3.46153846 -3.38461538 3.46153846 -1.4375 1.125 C-0.963125 0.75375 -0.48875 0.3825 0 0 Z " fill="#4890BC" transform="translate(365,1048)"/>
<path d="M0 0 C0 0.66 0 1.32 0 2 C-16.66768293 10.4847561 -16.66768293 10.4847561 -22 10 C-21.4534375 9.731875 -20.906875 9.46375 -20.34375 9.1875 C-17.69712179 7.84654171 -15.10027493 6.42872249 -12.5 5 C-10.66974988 3.99436806 -8.83662637 2.99393898 -7 2 C-6.2884375 1.608125 -5.576875 1.21625 -4.84375 0.8125 C-3 0 -3 0 0 0 Z " fill="#347292" transform="translate(423,990)"/>
<path d="M0 0 C0.33 0.66 0.66 1.32 1 2 C-0.98 2 -2.96 2 -5 2 C-5 2.99 -5 3.98 -5 5 C-4.34 5.33 -3.68 5.66 -3 6 C-4.32 6 -5.64 6 -7 6 C-7 6.66 -7 7.32 -7 8 C-8.32 7.67 -9.64 7.34 -11 7 C-11 6.34 -11 5.68 -11 5 C-11.66 4.34 -12.32 3.68 -13 3 C-10.41073669 0.41073669 -8.97294721 0.62601957 -5.375 0.375 C-4.37210937 0.30023437 -3.36921875 0.22546875 -2.3359375 0.1484375 C-1.56507813 0.09945312 -0.79421875 0.05046875 0 0 Z " fill="#2B7FAD" transform="translate(393,1020)"/>
<path d="M0 0 C0.66 0.66 1.32 1.32 2 2 C-0.2973419 8.76439558 -3.47558505 14.79520475 -7 21 C-7.87840996 17.90279155 -7.99435406 16.09354597 -7 13 C-6.34 13 -5.68 13 -5 13 C-4.896875 12.0925 -4.79375 11.185 -4.6875 10.25 C-3.98322506 6.92070026 -3.12094572 5.56280941 -1 3 C-0.67 2.01 -0.34 1.02 0 0 Z " fill="#5FB3EB" transform="translate(467,920)"/>
<path d="M0 0 C0.66 0.33 1.32 0.66 2 1 C1.67 1.928125 1.34 2.85625 1 3.8125 C-0.14967004 6.92029291 -0.14967004 6.92029291 0 10 C-0.99 10 -1.98 10 -3 10 C-3 9.34 -3 8.68 -3 8 C-5.64 8.66 -8.28 9.32 -11 10 C-7.84778899 5.58690458 -4.44536093 2.99206986 0 0 Z " fill="#5CB7E5" transform="translate(440,897)"/>
<path d="M0 0 C6.27 0 12.54 0 19 0 C19 0.66 19 1.32 19 2 C16.77100213 2.16890918 14.54179338 2.33503687 12.3125 2.5 C10.45044922 2.63921875 10.45044922 2.63921875 8.55078125 2.78125 C5.68500671 2.95779937 2.86900043 3.04388528 0 3 C0 2.01 0 1.02 0 0 Z " fill="#05040D" transform="translate(320,1116)"/>
<path d="M0 0 C1 3 1 3 0.00390625 5.48046875 C-0.47175781 6.37378906 -0.94742187 7.26710938 -1.4375 8.1875 C-1.91058594 9.08855469 -2.38367188 9.98960938 -2.87109375 10.91796875 C-3.24363281 11.60503906 -3.61617188 12.29210938 -4 13 C-4.99 12.67 -5.98 12.34 -7 12 C-6.32829194 8.1936543 -5.27253436 4.64793184 -4 1 C-3.01 1 -2.02 1 -1 1 C-0.67 0.67 -0.34 0.34 0 0 Z " fill="#2A7AAF" transform="translate(398,1036)"/>
<path d="M0 0 C0.66 0 1.32 0 2 0 C2 0.66 2 1.32 2 2 C3.65 1.34 5.3 0.68 7 0 C6.814375 0.763125 6.62875 1.52625 6.4375 2.3125 C5.77180827 5.08967375 5.77180827 5.08967375 7 8 C5.02 8.33 3.04 8.66 1 9 C1 7.68 1 6.36 1 5 C0.01 5 -0.98 5 -2 5 C-2 4.34 -2 3.68 -2 3 C-1.34 3 -0.68 3 0 3 C0 2.01 0 1.02 0 0 Z " fill="#B1ADA9" transform="translate(1602,870)"/>
<path d="M0 0 C0.66 0.99 1.32 1.98 2 3 C1.2884375 3.61875 1.2884375 3.61875 0.5625 4.25 C-1.16266518 6.182185 -1.56584875 7.48192275 -2 10 C-4.97 9.505 -4.97 9.505 -8 9 C-8.33 7.68 -8.66 6.36 -9 5 C-8.34 5 -7.68 5 -7 5 C-7 4.34 -7 3.68 -7 3 C-6.01 2.67 -5.02 2.34 -4 2 C-3.67 2.66 -3.34 3.32 -3 4 C-2.01 3.67 -1.02 3.34 0 3 C0 2.01 0 1.02 0 0 Z " fill="#51D1FA" transform="translate(411,937)"/>
<path d="M0 0 C3 1 3 1 4.16796875 2.8203125 C6.38483722 7.83162438 7.46639349 11.51987651 7 17 C4.42033404 14.42033404 3.66390156 11.90692108 2.375 8.5 C1.92898438 7.3346875 1.48296875 6.169375 1.0234375 4.96875 C0 2 0 2 0 0 Z " fill="#07172B" transform="translate(492,1040)"/>
<path d="M0 0 C1.98 0 3.96 0 6 0 C5.01 1.485 5.01 1.485 4 3 C3.34 3 2.68 3 2 3 C2 4.98 2 6.96 2 9 C0 9 0 9 -1.5625 7.6875 C-3 6 -3 6 -4 3 C-3.34 2.34 -2.68 1.68 -2 1 C-1.34 1.33 -0.68 1.66 0 2 C0 1.34 0 0.68 0 0 Z " fill="#A6A6AC" transform="translate(1276,899)"/>
<path d="M0 0 C0.5775 0.474375 1.155 0.94875 1.75 1.4375 C-2.04267192 2.3735342 -5.18674565 2.42026252 -9.0625 2 C-10.03832031 1.89816406 -11.01414062 1.79632812 -12.01953125 1.69140625 C-12.75558594 1.60761719 -13.49164063 1.52382813 -14.25 1.4375 C-14.25 0.7775 -14.25 0.1175 -14.25 -0.5625 C-4.70454545 -3.26704545 -4.70454545 -3.26704545 0 0 Z " fill="#42CFF2" transform="translate(415.25,975.5625)"/>
<path d="M0 0 C2.625 -0.1875 2.625 -0.1875 5 0 C4.01 2.97 3.02 5.94 2 9 C0.68 8.34 -0.64 7.68 -2 7 C-2 7.66 -2 8.32 -2 9 C-2.66 9 -3.32 9 -4 9 C-2.94124926 5.59687262 -1.99097846 2.98646769 0 0 Z " fill="#55C7EA" transform="translate(406,933)"/>
<path d="M0 0 C0.53625 0.226875 1.0725 0.45375 1.625 0.6875 C0.965 0.6875 0.305 0.6875 -0.375 0.6875 C-1.70833333 3.6875 -1.70833333 3.6875 -0.375 6.6875 C-4.46218695 6.92792276 -7.55179443 6.11008812 -11.375 4.6875 C-3.62774725 -0.47733516 -3.62774725 -0.47733516 0 0 Z " fill="#0B162E" transform="translate(425.375,973.3125)"/>
<path d="M0 0 C0.33 0 0.66 0 1 0 C0.44687265 4.02992782 -0.1558062 8.02022924 -1 12 C-1.99 12.33 -2.98 12.66 -4 13 C-4.33 13.66 -4.66 14.32 -5 15 C-5.66 15 -6.32 15 -7 15 C-5.45454854 9.52067211 -2.84456788 4.88570819 0 0 Z " fill="#081D3C" transform="translate(379,1078)"/>
<path d="M0 0 C0.33 0 0.66 0 1 0 C1.375 2.1875 1.375 2.1875 1 5 C-0.83961648 6.99022836 -2.79186148 8.38989899 -5 10 C-7.04119788 8.38405168 -9.04072937 6.7143618 -11 5 C-11 4.34 -11 3.68 -11 3 C-7.7 3.33 -4.4 3.66 -1 4 C-0.67 2.68 -0.34 1.36 0 0 Z " fill="#A2A2AD" transform="translate(1370,830)"/>
<path d="M0 0 C4 1 4 1 6 2 C6 2.66 6 3.32 6 4 C4.68 4 3.36 4 2 4 C2 4.66 2 5.32 2 6 C2.66 6 3.32 6 4 6 C4 7.32 4 8.64 4 10 C2.68 10 1.36 10 0 10 C0 6.7 0 3.4 0 0 Z " fill="#5699C7" transform="translate(372,1048)"/>
<path d="M0 0 C0.93423645 3.01031744 1.04449911 3.86650268 0 7 C-2.5625 8.1875 -2.5625 8.1875 -5 9 C-4.67 7.35 -4.34 5.7 -4 4 C-3.34 4 -2.68 4 -2 4 C-2 3.34 -2 2.68 -2 2 C-4.64 2.99 -7.28 3.98 -10 5 C-10 4.01 -10 3.02 -10 2 C-8.7090864 1.66376204 -7.41723903 1.33110751 -6.125 1 C-5.40570313 0.814375 -4.68640625 0.62875 -3.9453125 0.4375 C-2 0 -2 0 0 0 Z " fill="#051730" transform="translate(425,988)"/>
<path d="M0 0 C0.33 0 0.66 0 1 0 C1 3.3 1 6.6 1 10 C1.99 10.33 2.98 10.66 4 11 C2.35 11.66 0.7 12.32 -1 13 C-0.67 8.71 -0.34 4.42 0 0 Z M-4 13 C-3.01 13 -2.02 13 -1 13 C0.09658936 16.28976808 -0.20046862 17.71303767 -1 21 C-1.66 21 -2.32 21 -3 21 C-3.33 18.36 -3.66 15.72 -4 13 Z " fill="#3584B5" transform="translate(371,1048)"/>
<path d="M0 0 C0.99 0 1.98 0 3 0 C7 6.75 7 6.75 7 9 C5.35 8.67 3.7 8.34 2 8 C2 7.01 2 6.02 2 5 C0.68 5.33 -0.64 5.66 -2 6 C-1.34 4.02 -0.68 2.04 0 0 Z " fill="#336F95" transform="translate(386,984)"/>
<path d="M0 0 C0.33 1.65 0.66 3.3 1 5 C-0.32 5 -1.64 5 -3 5 C-3 4.01 -3 3.02 -3 2 C-5.97 2.66 -8.94 3.32 -12 4 C-11.67 3.01 -11.34 2.02 -11 1 C-7.50970582 -0.47666292 -3.72563614 -0.07164685 0 0 Z " fill="#70B0C7" transform="translate(380,1038)"/>
<path d="M0 0 C3.95602172 4.85511756 5.29212746 8.71925967 5 15 C4.01 14.67 3.02 14.34 2 14 C-0.2012966 9.24983365 -0.1765235 5.11918146 0 0 Z " fill="#49C3E4" transform="translate(475,1005)"/>
<path d="M0 0 C0.33 0.66 0.66 1.32 1 2 C0.28735352 3.87939453 0.28735352 3.87939453 -0.87109375 6.1328125 C-1.48500977 7.34130859 -1.48500977 7.34130859 -2.11132812 8.57421875 C-2.54896484 9.41597656 -2.98660156 10.25773438 -3.4375 11.125 C-3.87126953 11.97449219 -4.30503906 12.82398438 -4.75195312 13.69921875 C-5.82759468 15.80322092 -6.91050766 17.9031458 -8 20 C-9.31538327 15.84228506 -8.34433068 13.1120703 -7 9 C-6.01 9 -5.02 9 -4 9 C-3.8453125 8.1646875 -3.8453125 8.1646875 -3.6875 7.3125 C-2.86866423 4.55823422 -1.54146219 2.41272343 0 0 Z " fill="#34729B" transform="translate(417,999)"/>
<path d="M0 0 C2.93703384 0.62936439 5.33788628 1.62420173 8 3 C6.38007835 3.86375896 4.75388139 4.71575854 3.125 5.5625 C1.76761719 6.27599609 1.76761719 6.27599609 0.3828125 7.00390625 C-0.40351563 7.33261719 -1.18984375 7.66132812 -2 8 C-2.66 7.67 -3.32 7.34 -4 7 C-4 6.34 -4 5.68 -4 5 C-3.01 5 -2.02 5 -1 5 C-0.67 3.35 -0.34 1.7 0 0 Z " fill="#4FBFE9" transform="translate(422,968)"/>
<path d="M0 0 C1.31225809 3.93677426 0.3393954 5.7794262 -0.9375 9.6875 C-1.31777344 10.86699219 -1.69804687 12.04648437 -2.08984375 13.26171875 C-2.39019531 14.16535156 -2.69054687 15.06898438 -3 16 C-3.33 16 -3.66 16 -4 16 C-4.16873478 14.56274129 -4.33490737 13.12518162 -4.5 11.6875 C-4.5928125 10.88699219 -4.685625 10.08648438 -4.78125 9.26171875 C-5 7 -5 7 -5 4 C-3.02 4.495 -3.02 4.495 -1 5 C-0.67 3.35 -0.34 1.7 0 0 Z " fill="#62ADE2" transform="translate(473,904)"/>
<path d="M0 0 C0 1.32 0 2.64 0 4 C-0.66 4 -1.32 4 -2 4 C-2 6.97 -2 9.94 -2 13 C-2.33 13 -2.66 13 -3 13 C-3.144375 12.05125 -3.28875 11.1025 -3.4375 10.125 C-3.82935399 7.1065506 -3.82935399 7.1065506 -5 5 C-5.66 5 -6.32 5 -7 5 C-5.22678182 1.07358831 -4.52021524 0 0 0 Z " fill="#6AB9EC" transform="translate(475,880)"/>
<path d="M0 0 C0.66 0 1.32 0 2 0 C2 1.32 2 2.64 2 4 C2.66 4 3.32 4 4 4 C4.33 5.65 4.66 7.3 5 9 C3.1875 9.625 3.1875 9.625 1 10 C0.01 9.34 -0.98 8.68 -2 8 C-2 7.34 -2 6.68 -2 6 C-1.01 6 -0.02 6 1 6 C0.67 4.02 0.34 2.04 0 0 Z " fill="#2B729B" transform="translate(375,1040)"/>
<path d="M0 0 C-0.33 0.66 -0.66 1.32 -1 2 C-2.98 2 -4.96 2 -7 2 C-7.99 4.97 -8.98 7.94 -10 11 C-10.33 11 -10.66 11 -11 11 C-11 8.03 -11 5.06 -11 2 C-6.78370866 -0.10814567 -4.60209225 -0.17700355 0 0 Z " fill="#0A1F3B" transform="translate(427,1041)"/>
<path d="M0 0 C0.99 0.66 1.98 1.32 3 2 C3.40843923 4.71203652 3.13336867 7.2437142 3 10 C1.68 10.33 0.36 10.66 -1 11 C-2.26264601 6.70700357 -1.62950412 4.12168689 0 0 Z " fill="#1F202B" transform="translate(1362,837)"/>
<path d="M0 0 C0.66 0 1.32 0 2 0 C2.33 1.65 2.66 3.3 3 5 C3.99 5 4.98 5 6 5 C6 6.98 6 8.96 6 11 C6.66 11.33 7.32 11.66 8 12 C7.34 13.32 6.68 14.64 6 16 C5.18395001 14.0848421 4.37229368 12.16781166 3.5625 10.25 C3.11003906 9.18265625 2.65757812 8.1153125 2.19140625 7.015625 C1.26020447 4.6586159 0.5215928 2.47007165 0 0 Z " fill="#091D39" transform="translate(518,1099)"/>
<path d="M0 0 C2.31 0 4.62 0 7 0 C7 0.66 7 1.32 7 2 C6.01 2.33 5.02 2.66 4 3 C4 5.64 4 8.28 4 11 C1 9 1 9 0.48828125 6.8359375 C0.43027344 6.02382813 0.37226562 5.21171875 0.3125 4.375 C0.24675781 3.55773437 0.18101563 2.74046875 0.11328125 1.8984375 C0.07589844 1.27195312 0.03851562 0.64546875 0 0 Z " fill="#9799A5" transform="translate(1565,842)"/>
<path d="M0 0 C-0.66 3.63 -1.32 7.26 -2 11 C-2.99 11.33 -3.98 11.66 -5 12 C-4.67 9.03 -4.34 6.06 -4 3 C-4.99 3 -5.98 3 -7 3 C-7 2.34 -7 1.68 -7 1 C-2.25 0 -2.25 0 0 0 Z " fill="#999CA9" transform="translate(1562,841)"/>
<path d="M0 0 C0.99 0.495 0.99 0.495 2 1 C2 2.65 2 4.3 2 6 C2.66 6 3.32 6 4 6 C4 6.99 4 7.98 4 9 C4.66 9.33 5.32 9.66 6 10 C6 11.98 6 13.96 6 16 C3.23539154 14.61769577 3.00879139 13.08867771 1.875 10.25 C1.52179688 9.38890625 1.16859375 8.5278125 0.8046875 7.640625 C-0.01786806 4.94136502 -0.15123996 2.80298055 0 0 Z " fill="#48C3DA" transform="translate(434,990)"/>
<path d="M0 0 C0.66 0 1.32 0 2 0 C2.66 4.29 3.32 8.58 4 13 C3.01 13.33 2.02 13.66 1 14 C0.06380187 10.84493858 -0.1057123 8.03413498 -0.0625 4.75 C-0.05347656 3.85796875 -0.04445313 2.9659375 -0.03515625 2.046875 C-0.02355469 1.37140625 -0.01195312 0.6959375 0 0 Z " fill="#07020A" transform="translate(480,1106)"/>
<path d="M0 0 C0 0.66 0 1.32 0 2 C-0.99 2 -1.98 2 -3 2 C-3.226875 2.61875 -3.45375 3.2375 -3.6875 3.875 C-5.40962687 6.66320542 -6.87800152 7.16239065 -10 8 C-10.99 7.67 -11.98 7.34 -13 7 C-11.21190303 5.82786955 -9.41940875 4.66244474 -7.625 3.5 C-6.62726563 2.8503125 -5.62953125 2.200625 -4.6015625 1.53125 C-2 0 -2 0 0 0 Z " fill="#5AA1CA" transform="translate(455,889)"/>
<path d="M0 0 C0.99 0.66 1.98 1.32 3 2 C3 2.66 3 3.32 3 4 C2.01 4 1.02 4 0 4 C0 4.66 0 5.32 0 6 C-1.98 6.33 -3.96 6.66 -6 7 C-6.33 6.01 -6.66 5.02 -7 4 C-3.535 3.505 -3.535 3.505 0 3 C0 2.01 0 1.02 0 0 Z " fill="#106CA3" transform="translate(373,1042)"/>
<path d="M0 0 C0.99 0 1.98 0 3 0 C3.1875 2.875 3.1875 2.875 3 6 C0 8 0 8 -3 8 C-2.67 6.68 -2.34 5.36 -2 4 C-1.34 4 -0.68 4 0 4 C0 2.68 0 1.36 0 0 Z " fill="#B1B5C3" transform="translate(1297,856)"/>
<path d="M0 0 C1.1171875 1.734375 1.1171875 1.734375 2 4 C1.3203125 6.140625 1.3203125 6.140625 0.125 8.25 C-0.26429688 8.95640625 -0.65359375 9.6628125 -1.0546875 10.390625 C-1.36664063 10.92171875 -1.67859375 11.4528125 -2 12 C-3.51953125 10.69921875 -3.51953125 10.69921875 -5 9 C-4.6875 5.8125 -4.6875 5.8125 -4 3 C-3.67 4.32 -3.34 5.64 -3 7 C-2.34 7 -1.68 7 -1 7 C-1.020625 6.030625 -1.04125 5.06125 -1.0625 4.0625 C-1 1 -1 1 0 0 Z " fill="#236CA1" transform="translate(368,1094)"/>
<path d="M0 0 C2 3 2 3 1.9375 5.5625 C1 8 1 8 -1.5625 9.3125 C-2.7690625 9.6528125 -2.7690625 9.6528125 -4 10 C-3.52449439 8.51965236 -3.04448784 7.04074979 -2.5625 5.5625 C-2.29566406 4.73878906 -2.02882813 3.91507813 -1.75390625 3.06640625 C-1 1 -1 1 0 0 Z " fill="#071532" transform="translate(389,1057)"/>
<path d="M0 0 C-0.25 1.875 -0.25 1.875 -1 4 C-3.0625 5.25 -3.0625 5.25 -5 6 C-5 6.66 -5 7.32 -5 8 C-6.65 7.67 -8.3 7.34 -10 7 C-9.236875 6.401875 -8.47375 5.80375 -7.6875 5.1875 C-5.08664741 3.15995888 -5.08664741 3.15995888 -3.3125 1.25 C-2 0 -2 0 0 0 Z " fill="#04040B" transform="translate(437,894)"/>
<path d="M0 0 C1.50559539 1.96382007 2.89131683 3.78263366 4 6 C-1.75 8 -1.75 8 -4 8 C-2.25 2.25 -2.25 2.25 0 0 Z " fill="#4CC4E3" transform="translate(416,1052)"/>
<path d="M0 0 C2.31 0 4.62 0 7 0 C6.67 1.32 6.34 2.64 6 4 C4.35 4.33 2.7 4.66 1 5 C0.67 3.35 0.34 1.7 0 0 Z " fill="#3478A1" transform="translate(383,1030)"/>
<path d="M0 0 C0.66 0 1.32 0 2 0 C1.71125 0.70125 1.4225 1.4025 1.125 2.125 C-0.02133588 5.05452503 -1.02625654 8.00921653 -2 11 C-2.66 11 -3.32 11 -4 11 C-4.93423645 7.98968256 -5.04449911 7.13349732 -4 4 C-3.01 4 -2.02 4 -1 4 C-0.67 2.68 -0.34 1.36 0 0 Z " fill="#061536" transform="translate(408,1062)"/>
<path d="M0 0 C1.65 0 3.3 0 5 0 C4 3 4 3 3 5 C1.02 5 -0.96 5 -3 5 C-2.67 3.68 -2.34 2.36 -2 1 C-1.34 1.33 -0.68 1.66 0 2 C0 1.34 0 0.68 0 0 Z " fill="#308DB7" transform="translate(370,1040)"/>
<path d="M0 0 C0.66 0.33 1.32 0.66 2 1 C-0.77779328 4.99307785 -2.49526679 7.21133443 -7.3125 8.375 C-8.529375 8.58125 -9.74625 8.7875 -11 9 C-8.77276018 6.66034429 -6.41043353 4.72900834 -3.8125 2.8125 C-3.09707031 2.28269531 -2.38164062 1.75289062 -1.64453125 1.20703125 C-1.10183594 0.80871094 -0.55914062 0.41039062 0 0 Z " fill="#0E2848" transform="translate(441,962)"/>
<path d="M0 0 C-0.33 0.99 -0.66 1.98 -1 3 C-1 2.34 -1 1.68 -1 1 C-1.99 1 -2.98 1 -4 1 C-4 2.32 -4 3.64 -4 5 C-4.99 5.33 -5.98 5.66 -7 6 C-7.33 4.02 -7.66 2.04 -8 0 C-5.13822943 -1.43088528 -3.06624227 -0.59991697 0 0 Z " fill="#2E3449" transform="translate(1301,855)"/>
<path d="M0 0 C0.66 0 1.32 0 2 0 C3.4606285 2.64738916 4 3.89448334 4 7 C2.02 7.66 0.04 8.32 -2 9 C-1.34 6.03 -0.68 3.06 0 0 Z " fill="#B3B7B8" transform="translate(1449,825)"/>
<path d="M0 0 C2.31483907 2.31483907 2.7608956 3.89022523 3.6875 7 C3.95949219 7.886875 4.23148437 8.77375 4.51171875 9.6875 C5 12 5 12 4 14 C3.34 14 2.68 14 2 14 C1.66179834 12.4176994 1.32964061 10.83410625 1 9.25 C0.814375 8.36828125 0.62875 7.4865625 0.4375 6.578125 C0 4 0 4 0 0 Z " fill="#10253D" transform="translate(481,1102)"/>
<path d="M0 0 C0.66 0 1.32 0 2 0 C1.54738642 1.43931117 1.08767021 2.87638999 0.625 4.3125 C0.36976563 5.11300781 0.11453125 5.91351562 -0.1484375 6.73828125 C-1 9 -1 9 -3 12 C-3.66 12 -4.32 12 -5 12 C-4.34 9.36 -3.68 6.72 -3 4 C-2.34 4 -1.68 4 -1 4 C-0.67 2.68 -0.34 1.36 0 0 Z " fill="#387AAC" transform="translate(389,1053)"/>
<path d="M0 0 C0.33 0 0.66 0 1 0 C1.3125 3.1875 1.3125 3.1875 1 7 C-1.5 9.9375 -1.5 9.9375 -4 12 C-2 3.42857143 -2 3.42857143 0 0 Z " fill="#346D96" transform="translate(363,1029)"/>
<path d="M0 0 C2.64 0 5.28 0 8 0 C6.30820672 2.04219706 5.36272334 2.91793306 2.73828125 3.51171875 C1.93777344 3.56972656 1.13726562 3.62773438 0.3125 3.6875 C-0.49574219 3.75324219 -1.30398438 3.81898438 -2.13671875 3.88671875 C-2.75160156 3.92410156 -3.36648438 3.96148438 -4 4 C-3.67 3.34 -3.34 2.68 -3 2 C-2.01 2 -1.02 2 0 2 C0 1.34 0 0.68 0 0 Z " fill="#071831" transform="translate(400,996)"/>
<path d="M0 0 C0.33 1.32 0.66 2.64 1 4 C0.01 4 -0.98 4 -2 4 C-1.67 5.65 -1.34 7.3 -1 9 C-2.98 9 -4.96 9 -7 9 C-6.02180976 7.68677212 -5.0424189 6.37443848 -4.0625 5.0625 C-3.51722656 4.33160156 -2.97195313 3.60070312 -2.41015625 2.84765625 C-1 1 -1 1 0 0 Z " fill="#0E1D39" transform="translate(452,951)"/>
<path d="M0 0 C1.32 0 2.64 0 4 0 C4 0.99 4 1.98 4 3 C3.34 3 2.68 3 2 3 C1.67 4.65 1.34 6.3 1 8 C0.34 8 -0.32 8 -1 8 C-1.04241723 5.66705225 -1.04092937 3.33297433 -1 1 C-0.67 0.67 -0.34 0.34 0 0 Z " fill="#04050A" transform="translate(401,930)"/>
<path d="M0 0 C0.66 0 1.32 0 2 0 C2.12375 0.639375 2.2475 1.27875 2.375 1.9375 C2.684375 2.9584375 2.684375 2.9584375 3 4 C3.66 4.33 4.32 4.66 5 5 C4.67 5.66 4.34 6.32 4 7 C1.9375 7.625 1.9375 7.625 0 8 C0 7.01 0 6.02 0 5 C-0.66 4.67 -1.32 4.34 -2 4 C-1.34 2.68 -0.68 1.36 0 0 Z " fill="#838490" transform="translate(1562,836)"/>
<path d="M0 0 C2 2 2 2 2.5 4.5625 C2.665 5.366875 2.83 6.17125 3 7 C3.66 7.33 4.32 7.66 5 8 C3.1875 8.6875 3.1875 8.6875 1 9 C-0.75 7.5625 -0.75 7.5625 -2 6 C-1.34 5.01 -0.68 4.02 0 3 C0 2.01 0 1.02 0 0 Z " fill="#1E7BA8" transform="translate(381,1028)"/>
<path d="M0 0 C0.33 1.32 0.66 2.64 1 4 C-1.35968744 6.09749995 -2.54616994 6.96905704 -5.75 7.1875 C-6.86375 7.0946875 -6.86375 7.0946875 -8 7 C-5.4837822 4.39391727 -2.94865641 2.10618315 0 0 Z " fill="#46BDDF" transform="translate(444,983)"/>
<path d="M0 0 C0.99 0 1.98 0 3 0 C3 0.66 3 1.32 3 2 C8.28 2 13.56 2 19 2 C19 2.33 19 2.66 19 3 C12.73 3 6.46 3 0 3 C0 2.01 0 1.02 0 0 Z " fill="#2D77AA" transform="translate(321,1111)"/>
<path d="M0 0 C0.66 0.99 1.32 1.98 2 3 C1.00200236 6.99199058 -0.55799862 8.82006579 -4 11 C-3.52269162 9.5410574 -3.04308958 8.08286504 -2.5625 6.625 C-2.29566406 5.81289062 -2.02882813 5.00078125 -1.75390625 4.1640625 C-1 2 -1 2 0 0 Z " fill="#091E3C" transform="translate(384,1067)"/>
<path d="M0 0 C0.99 0 1.98 0 3 0 C3.33 1.65 3.66 3.3 4 5 C2.02 5.99 2.02 5.99 0 7 C-0.38133299 5.0085944 -0.71325582 3.00720923 -1 1 C-0.67 0.67 -0.34 0.34 0 0 Z " fill="#2D86B6" transform="translate(385,989)"/>
<path d="M0 0 C0.66 0 1.32 0 2 0 C2.33 2.97 2.66 5.94 3 9 C2.34 9 1.68 9 1 9 C0.67 10.32 0.34 11.64 0 13 C0 8.71 0 4.42 0 0 Z " fill="#070311" transform="translate(477,880)"/>
<path d="M0 0 C0 0.99 0 1.98 0 3 C-2.31 4.32 -4.62 5.64 -7 7 C-6.6875 4.625 -6.6875 4.625 -6 2 C-3 0 -3 0 0 0 Z " fill="#C6C6CF" transform="translate(1371,839)"/>
<path d="M0 0 C1.65 0 3.3 0 5 0 C5.66 1.32 6.32 2.64 7 4 C4.69 4 2.38 4 0 4 C0 2.68 0 1.36 0 0 Z " fill="#050611" transform="translate(499,1053)"/>
<path d="M0 0 C0.598125 0.20625 1.19625 0.4125 1.8125 0.625 C1.8125 1.615 1.8125 2.605 1.8125 3.625 C-0.1675 3.955 -2.1475 4.285 -4.1875 4.625 C-4.5175 3.635 -4.8475 2.645 -5.1875 1.625 C-2.1875 -0.375 -2.1875 -0.375 0 0 Z " fill="#25272E" transform="translate(1370.1875,843.375)"/>
<path d="M0 0 C0 1.65 0 3.3 0 5 C-0.66 5 -1.32 5 -2 5 C-2.33 5.99 -2.66 6.98 -3 8 C-3.66 8 -4.32 8 -5 8 C-3.91891892 0 -3.91891892 0 0 0 Z " fill="#1A72A9" transform="translate(365,1102)"/>
<path d="M0 0 C1.32 0 2.64 0 4 0 C4 1.32 4 2.64 4 4 C1.69 4 -0.62 4 -3 4 C-3 3.34 -3 2.68 -3 2 C-2.01 2 -1.02 2 0 2 C0 1.34 0 0.68 0 0 Z " fill="#73A1BF" transform="translate(386,1026)"/>
<path d="M0 0 C0.33 0.66 0.66 1.32 1 2 C1.66 2 2.32 2 3 2 C2.34 3.32 1.68 4.64 1 6 C0.34 6 -0.32 6 -1 6 C-1 6.66 -1 7.32 -1 8 C-1.66 8 -2.32 8 -3 8 C-1.125 2.25 -1.125 2.25 0 0 Z " fill="#06152D" transform="translate(409,1017)"/>
<path d="M0 0 C0.33 0 0.66 0 1 0 C1.53154742 1.60064843 2.04988353 3.20568874 2.5625 4.8125 C2.85253906 5.70582031 3.14257812 6.59914063 3.44140625 7.51953125 C4 10 4 10 3 13 C-1.07877462 5.9452954 -1.07877462 5.9452954 -0.75 2 C-0.5025 1.34 -0.255 0.68 0 0 Z " fill="#122239" transform="translate(474,996)"/>
<path d="M0 0 C0.66 0.66 1.32 1.32 2 2 C1.54857119 3.29409592 1.08858979 4.58521059 0.625 5.875 C0.36976563 6.59429688 0.11453125 7.31359375 -0.1484375 8.0546875 C-1 10 -1 10 -3 12 C-2.14285714 3.42857143 -2.14285714 3.42857143 0 0 Z " fill="#5DA1D9" transform="translate(467,920)"/>
<path d="M0 0 C1.98 0.495 1.98 0.495 4 1 C3.45276317 4.37462715 2.9451 6.08235 1 9 C1 7.02 1 5.04 1 3 C0.34 3 -0.32 3 -1 3 C-0.67 2.01 -0.34 1.02 0 0 Z " fill="#050410" transform="translate(517,1090)"/>
<path d="M0 0 C0.99 0 1.98 0 3 0 C2.39301257 4.12751449 0.96189209 7.3321148 -1 11 C-2.60080151 6.99799622 -1.29279692 3.95443764 0 0 Z " fill="#34749F" transform="translate(404,1020)"/>
<path d="M0 0 C2.0625 0.4375 2.0625 0.4375 4 1 C3.01 1.99 2.02 2.98 1 4 C2.65 3.34 4.3 2.68 6 2 C5.67 2.99 5.34 3.98 5 5 C3.35 5 1.7 5 0 5 C-0.5625 3.0625 -0.5625 3.0625 -1 1 C-0.67 0.67 -0.34 0.34 0 0 Z " fill="#71B6D3" transform="translate(388,1016)"/>
<path d="M0 0 C0.66 0 1.32 0 2 0 C2.33 0.99 2.66 1.98 3 3 C2.00390625 4.82421875 2.00390625 4.82421875 0.5625 6.6875 C0.08941406 7.31011719 -0.38367188 7.93273437 -0.87109375 8.57421875 C-1.24363281 9.04472656 -1.61617188 9.51523437 -2 10 C-3.39195915 5.82412255 -1.82323219 3.86525224 0 0 Z " fill="#061835" transform="translate(450,969)"/>
<path d="M0 0 C0 3.19219704 -0.23605791 4.39608549 -2 7 C-4.625 8.25 -4.625 8.25 -7 9 C-5.44499019 5.18315774 -2.96404505 2.80804268 0 0 Z " fill="#55A3C8" transform="translate(423,911)"/>
<path d="M0 0 C1.65 0 3.3 0 5 0 C4.67 0.66 4.34 1.32 4 2 C3.34 2 2.68 2 2 2 C2 4.31 2 6.62 2 9 C0 7 0 7 -0.125 3.375 C-0.08375 2.26125 -0.0425 1.1475 0 0 Z " fill="#C6C8D1" transform="translate(1372,838)"/>
<path d="M0 0 C0.66 0 1.32 0 2 0 C2.66 1.98 3.32 3.96 4 6 C2.35 6 0.7 6 -1 6 C-0.67 4.02 -0.34 2.04 0 0 Z " fill="#1C7EB3" transform="translate(325,1107)"/>
<path d="M0 0 C1.32 0 2.64 0 4 0 C5 3 5 3 4.0625 5.1875 C3.5365625 6.0846875 3.5365625 6.0846875 3 7 C0 2.25 0 2.25 0 0 Z " fill="#4AC6EA" transform="translate(472,1080)"/>
<path d="M0 0 C0.33 0 0.66 0 1 0 C1.3125 2.8125 1.3125 2.8125 1 6 C-1.5 7.875 -1.5 7.875 -4 9 C-2.94124926 5.59687262 -1.99097846 2.98646769 0 0 Z " fill="#265B81" transform="translate(354,1047)"/>
<path d="M0 0 C2.96052484 3.36423277 3.92289822 6.69159287 5 11 C2 10 2 10 0.8125 7.75 C0.00061706 5.00208853 -0.16260121 2.84552111 0 0 Z " fill="#4AAAC4" transform="translate(480,1016)"/>
<path d="M0 0 C0.99 0 1.98 0 3 0 C5.09350689 3.4019487 5.17942163 6.05272412 5 10 C2.82145293 6.7321794 1.50239966 3.61941735 0 0 Z " fill="#071128" transform="translate(479,1013)"/>
<path d="M0 0 C0 0.66 0 1.32 0 2 C-2.97 3.65 -5.94 5.3 -9 7 C-9 6.01 -9 5.02 -9 4 C-8.01 4 -7.02 4 -6 4 C-5.67 3.01 -5.34 2.02 -5 1 C-2 0 -2 0 0 0 Z " fill="#08172F" transform="translate(450,890)"/>
<path d="M0 0 C2 1 2 1 3 3 C0.69 3.66 -1.62 4.32 -4 5 C-4.66 4.34 -5.32 3.68 -6 3 C-4.03533587 1.93224776 -2.03144641 0.93446535 0 0 Z " fill="#5699C3" transform="translate(461,885)"/>
<path d="M0 0 C0.99 0.33 1.98 0.66 3 1 C3 3.31 3 5.62 3 8 C1.02 8.33 -0.96 8.66 -3 9 C-2.67 8.34 -2.34 7.68 -2 7 C-0.68 7 0.64 7 2 7 C1.67 6.401875 1.34 5.80375 1 5.1875 C0 3 0 3 0 0 Z " fill="#747776" transform="translate(1451,825)"/>
<path d="M0 0 C0.33 0 0.66 0 1 0 C1 1.65 1 3.3 1 5 C0.34 5 -0.32 5 -1 5 C-1 6.32 -1 7.64 -1 9 C-1.99 9 -2.98 9 -4 9 C-2.80100302 5.9168649 -1.52299523 2.93720508 0 0 Z " fill="#2F648D" transform="translate(339,1076)"/>
<path d="M0 0 C0 2.31 0 4.62 0 7 C-0.66 7 -1.32 7 -2 7 C-2 6.34 -2 5.68 -2 5 C-2.66 5 -3.32 5 -4 5 C-3.625 3.0625 -3.625 3.0625 -3 1 C-1 0 -1 0 0 0 Z " fill="#3FDEF7" transform="translate(490,1038)"/>
<path d="M0 0 C1 2 1 2 0.44140625 3.9453125 C0.15136719 4.66460938 -0.13867188 5.38390625 -0.4375 6.125 C-0.72496094 6.84945313 -1.01242187 7.57390625 -1.30859375 8.3203125 C-1.53675781 8.87460938 -1.76492188 9.42890625 -2 10 C-2.66 10 -3.32 10 -4 10 C-3.52449439 8.51965236 -3.04448784 7.04074979 -2.5625 5.5625 C-2.29566406 4.73878906 -2.02882813 3.91507813 -1.75390625 3.06640625 C-1 1 -1 1 0 0 Z " fill="#0A1F3B" transform="translate(405,1025)"/>
<path d="M0 0 C0.625 1.8125 0.625 1.8125 1 4 C0.01 5.485 0.01 5.485 -1 7 C-1.66 7 -2.32 7 -3 7 C-3.1875 4.625 -3.1875 4.625 -3 2 C-2.01 1.34 -1.02 0.68 0 0 Z " fill="#348BBB" transform="translate(378,1031)"/>
<path d="M0 0 C2 2 2 2 2 5 C2.66 5 3.32 5 4 5 C4 5.99 4 6.98 4 8 C2.68 7.67 1.36 7.34 0 7 C0 4.69 0 2.38 0 0 Z " fill="#63A3C7" transform="translate(373,1018)"/>
<path d="M0 0 C0.66 0 1.32 0 2 0 C0.25 5.75 0.25 5.75 -2 8 C-2.33 6.35 -2.66 4.7 -3 3 C-2.34 3 -1.68 3 -1 3 C-0.67 2.01 -0.34 1.02 0 0 Z " fill="#051233" transform="translate(339,1072)"/>
<path d="M0 0 C0.33 0.66 0.66 1.32 1 2 C0.67 2.99 0.34 3.98 0 5 C0.33 5.66 0.66 6.32 1 7 C-0.65 7.33 -2.3 7.66 -4 8 C-4 7.01 -4 6.02 -4 5 C-3.34 5 -2.68 5 -2 5 C-2 3.68 -2 2.36 -2 1 C-1.34 0.67 -0.68 0.34 0 0 Z " fill="#3480AC" transform="translate(379,1003)"/>
<path d="M0 0 C0.33 0.66 0.66 1.32 1 2 C0.01 3.32 -0.98 4.64 -2 6 C-2.99 5.01 -3.98 4.02 -5 3 C-4.67 2.34 -4.34 1.68 -4 1 C-1.9375 0.375 -1.9375 0.375 0 0 Z " fill="#1E7696" transform="translate(420,993)"/>
<path d="M0 0 C0.66 0.33 1.32 0.66 2 1 C2 4.3 2 7.6 2 11 C1.67 11 1.34 11 1 11 C0.855625 10.236875 0.71125 9.47375 0.5625 8.6875 C0.0367406 5.91827092 0.0367406 5.91827092 -1 3 C-0.67 2.01 -0.34 1.02 0 0 Z " fill="#040409" transform="translate(477,899)"/>
<path d="M0 0 C1.0326802 2.78823655 1.04509293 3.8677274 0.0625 6.75 C-0.288125 7.4925 -0.63875 8.235 -1 9 C-1.66 9 -2.32 9 -3 9 C-2.44271087 5.65626525 -1.64826111 2.96687001 0 0 Z " fill="#215F82" transform="translate(328,1096)"/>
<path d="M0 0 C0.66 0 1.32 0 2 0 C2.33 2.64 2.66 5.28 3 8 C2.01 8.33 1.02 8.66 0 9 C0 6.03 0 3.06 0 0 Z " fill="#060209" transform="translate(473,1090)"/>
<path d="M0 0 C0.33 0.99 0.66 1.98 1 3 C0.01 3.33 -0.98 3.66 -2 4 C-3.20882096 6.00016466 -3.20882096 6.00016466 -4 8 C-4.25 5.6875 -4.25 5.6875 -4 3 C-2 1.1875 -2 1.1875 0 0 Z " fill="#277FB6" transform="translate(391,1049)"/>
<path d="M0 0 C0.99 0 1.98 0 3 0 C3 1.98 3 3.96 3 6 C2.34 6 1.68 6 1 6 C0.67 6.66 0.34 7.32 0 8 C0 5.36 0 2.72 0 0 Z " fill="#217FAA" transform="translate(368,1049)"/>
<path d="M0 0 C1.98 0 3.96 0 6 0 C6.33 0.99 6.66 1.98 7 3 C5.35 3.66 3.7 4.32 2 5 C2.33 4.01 2.66 3.02 3 2 C2.01 2 1.02 2 0 2 C0 1.34 0 0.68 0 0 Z " fill="#438AAE" transform="translate(387,1015)"/>
<path d="M0 0 C0.99 0 1.98 0 3 0 C2.67 1.98 2.34 3.96 2 6 C1.34 6 0.68 6 0 6 C-0.38218767 4.34385343 -0.71395102 2.67542976 -1 1 C-0.67 0.67 -0.34 0.34 0 0 Z " fill="#40E5F6" transform="translate(436,990)"/>
<path d="M0 0 C0.625 1.8125 0.625 1.8125 1 4 C0.01 5.485 0.01 5.485 -1 7 C-1.99 7 -2.98 7 -4 7 C-2.79618552 4.50638429 -1.54571278 2.31856917 0 0 Z " fill="#142D4B" transform="translate(457,944)"/>
<path d="M0 0 C2.0625 0.4375 2.0625 0.4375 4 1 C-0.75 5 -0.75 5 -3 5 C-1.125 1.125 -1.125 1.125 0 0 Z " fill="#0C1E36" transform="translate(436,897)"/>
<path d="M0 0 C0.66 0 1.32 0 2 0 C2 1.65 2 3.3 2 5 C0.68 5 -0.64 5 -2 5 C-1.125 1.125 -1.125 1.125 0 0 Z " fill="#15181D" transform="translate(1270,893)"/>
<path d="M0 0 C0.99 0.33 1.98 0.66 3 1 C3 1.66 3 2.32 3 3 C3.99 2.67 4.98 2.34 6 2 C6 2.66 6 3.32 6 4 C4.02 4.33 2.04 4.66 0 5 C0 3.35 0 1.7 0 0 Z " fill="#8C8B8A" transform="translate(1603,874)"/>
</svg>
